<?xml version="1.0" encoding="UTF-8" standalone="no"?>
<!-- Created with Inkscape (http://www.inkscape.org/) -->

<svg
   xmlns:dc="http://purl.org/dc/elements/1.1/"
   xmlns:cc="http://creativecommons.org/ns#"
   xmlns:rdf="http://www.w3.org/1999/02/22-rdf-syntax-ns#"
   xmlns:svg="http://www.w3.org/2000/svg"
   xmlns="http://www.w3.org/2000/svg"
   xmlns:xlink="http://www.w3.org/1999/xlink"
   xmlns:sodipodi="http://sodipodi.sourceforge.net/DTD/sodipodi-0.dtd"
   xmlns:inkscape="http://www.inkscape.org/namespaces/inkscape"
   width="786"
   height="480.42166"
   id="svg2"
   version="1.1"
   inkscape:version="0.48.3.1 r9886"
   sodipodi:docname="wideBoreDrillBlocks.svg"
   inkscape:export-filename="/home/jeff/minecraft/Power Tools/media/ads/wideBoreDrillBlocks.png"
   inkscape:export-xdpi="56.200001"
   inkscape:export-ydpi="56.200001">
  <defs
     id="defs4">
    <clipPath
       clipPathUnits="userSpaceOnUse"
       id="clipPath3929">
      <rect
         y="245.76486"
         x="-2.383055"
         height="480"
         width="786"
         id="rect3932"
         style="color:#000000;fill:#000000;fill-opacity:1;fill-rule:nonzero;stroke:none;stroke-width:10;marker:none;visibility:visible;display:inline;overflow:visible;enable-background:accumulate" />
    </clipPath>
  </defs>
  <sodipodi:namedview
     id="base"
     pagecolor="#ffffff"
     bordercolor="#666666"
     borderopacity="1.0"
     inkscape:pageopacity="0.0"
     inkscape:pageshadow="2"
     inkscape:zoom="0.76378328"
     inkscape:cx="380.82624"
     inkscape:cy="236.40285"
     inkscape:document-units="px"
     inkscape:current-layer="layer1"
     showgrid="false"
     fit-margin-right="-68"
     fit-margin-top="0"
     fit-margin-left="0"
     fit-margin-bottom="0"
     inkscape:window-width="1366"
     inkscape:window-height="715"
     inkscape:window-x="0"
     inkscape:window-y="25"
     inkscape:window-maximized="1" />
  <metadata
     id="metadata7">
    <rdf:RDF>
      <cc:Work
         rdf:about="">
        <dc:format>image/svg+xml</dc:format>
        <dc:type
           rdf:resource="http://purl.org/dc/dcmitype/StillImage" />
        <dc:title></dc:title>
      </cc:Work>
    </rdf:RDF>
  </metadata>
  <g
     inkscape:label="Layer 1"
     inkscape:groupmode="layer"
     id="layer1"
     transform="translate(2.383055,-245.3432)">
    <image
       y="245.76489"
       x="-2.383055"
       id="image2993"
       xlink:href="file:///home/jeff/minecraft/Power%20Tools/media/raw%20ss/2013-05-27_21.51.14.png"
       height="480"
       width="854"
       clip-path="url(#clipPath3929)"
       transform="matrix(1,0,0,1.0041667,0,-2.0240698)" />
    <path
       sodipodi:type="inkscape:offset"
       inkscape:radius="5.2890458"
       inkscape:original="M 19.0625 469.3125 L 29.46875 504.78125 L 34.65625 504.78125 L 40.5 481.3125 L 46.21875 504.78125 L 51.4375 504.78125 L 61.8125 469.3125 L 55.09375 469.3125 L 48.8125 494.0625 L 42.84375 469.3125 L 38.0625 469.3125 L 32 494.0625 L 25.78125 469.3125 L 19.0625 469.3125 z M 64.53125 469.3125 L 64.53125 475.3125 L 70.90625 475.3125 L 70.90625 469.3125 L 64.53125 469.3125 z M 96.5 469.3125 L 96.5 480.53125 C 94.628 478.46725 91.5475 477.21875 88.1875 477.21875 C 80.74751 477.21875 74.90625 483.4695 74.90625 491.4375 C 74.90625 499.30949 80.71401 505.40625 88.25 505.40625 C 91.85 505.40625 94.48725 504.19249 97.03125 501.3125 L 97.03125 504.78125 L 102.875 504.78125 L 102.875 469.3125 L 96.5 469.3125 z M 159.3125 469.3125 L 159.3125 504.78125 L 168.78125 504.78125 C 172.71725 504.78125 175.59 504.15649 177.75 502.8125 C 180.678 501.0365 182.375 497.86674 182.375 494.21875 C 182.375 492.01075 181.729 489.84624 180.625 488.40625 C 179.617 487.06225 178.6165 486.39749 176.3125 485.4375 C 179.1445 483.9495 180.25 482.06199 180.25 478.75 C 180.25 475.438 178.76275 472.66324 176.21875 471.03125 C 174.10675 469.68725 171.90499 469.3125 166.625 469.3125 L 159.3125 469.3125 z M 165.90625 475.75 L 168.59375 475.75 C 172.00175 475.75 173.6875 476.89575 173.6875 479.34375 C 173.6875 481.88774 171.984 483 168 483 L 165.90625 483 L 165.90625 475.75 z M 120.59375 477.5625 C 112.76976 477.5625 106.59375 483.7385 106.59375 491.5625 C 106.59375 499.33849 112.88801 505.40625 121 505.40625 C 125.368 505.40625 128.7785 503.80974 131.5625 500.59375 C 132.5705 499.34575 133.22425 498.25024 133.65625 496.90625 L 126.71875 496.90625 C 125.08675 498.82624 123.48375 499.53125 120.84375 499.53125 C 117.05175 499.53125 114.268 497.52849 113.5 494.3125 L 134.09375 494.3125 C 134.28575 493.4005 134.34375 492.83499 134.34375 491.875 C 134.34375 483.619 128.51374 477.5625 120.59375 477.5625 z M 199.40625 477.5625 C 191.67826 477.5625 185.34375 483.83675 185.34375 491.46875 C 185.34375 499.14874 191.69276 505.40625 199.46875 505.40625 C 207.19674 505.40625 213.625 499.17549 213.625 491.6875 C 213.625 483.7675 207.42224 477.5625 199.40625 477.5625 z M 228.84375 477.5625 C 226.10775 477.5625 224.77375 478.33325 223.09375 480.78125 L 223.09375 478.1875 L 217.25 478.1875 L 217.25 504.78125 L 223.625 504.78125 L 223.625 490 C 223.625 485.872 225.50375 483.81475 229.34375 483.71875 L 229.34375 477.5625 L 228.84375 477.5625 z M 245.46875 477.5625 C 237.64476 477.5625 231.46875 483.7385 231.46875 491.5625 C 231.46875 499.33849 237.76301 505.40625 245.875 505.40625 C 250.243 505.40625 253.6535 503.80974 256.4375 500.59375 C 257.4455 499.34575 258.09925 498.25024 258.53125 496.90625 L 251.59375 496.90625 C 249.96175 498.82624 248.35875 499.53125 245.71875 499.53125 C 241.92675 499.53125 239.143 497.52849 238.375 494.3125 L 258.96875 494.3125 C 259.16075 493.4005 259.21875 492.83499 259.21875 491.875 C 259.21875 483.619 253.38874 477.5625 245.46875 477.5625 z M 64.53125 478.1875 L 64.53125 504.78125 L 70.90625 504.78125 L 70.90625 478.1875 L 64.53125 478.1875 z M 89.125 483.09375 C 93.589 483.09375 96.96875 486.68775 96.96875 491.34375 C 96.96875 495.95174 93.57 499.53125 89.25 499.53125 C 84.786 499.53125 81.34375 495.86024 81.34375 491.15625 C 81.34375 486.64425 84.757 483.09375 89.125 483.09375 z M 120.71875 483.40625 C 124.65475 483.40625 127.2465 485.2795 128.0625 488.6875 L 113.3125 488.6875 C 114.3205 485.2795 116.92675 483.40625 120.71875 483.40625 z M 199.46875 483.40625 C 203.74075 483.40625 207.1875 487.05275 207.1875 491.46875 C 207.1875 495.93274 203.724 499.53125 199.5 499.53125 C 195.18 499.53125 191.78125 495.93499 191.78125 491.375 C 191.78125 487.007 195.29275 483.40625 199.46875 483.40625 z M 245.59375 483.40625 C 249.52975 483.40625 252.1215 485.2795 252.9375 488.6875 L 238.1875 488.6875 C 239.1955 485.2795 241.80175 483.40625 245.59375 483.40625 z M 139.46875 488.125 L 139.46875 493.78125 L 152.75 493.78125 L 152.75 488.125 L 139.46875 488.125 z M 165.90625 489.40625 L 169.03125 489.40625 C 173.59125 489.40625 175.75 490.8945 175.75 494.0625 C 175.75 497.13449 173.76425 498.5 169.15625 498.5 L 165.90625 498.5 L 165.90625 489.40625 z M 180.5 529.3125 L 180.5 564.78125 L 188.75 564.78125 C 194.12599 564.78125 197.37 564.25249 200.25 562.8125 C 205.72199 560.1245 208.9375 554.27699 208.9375 547.125 C 208.9375 540.405 206.1315 534.81974 201.1875 531.84375 C 198.4035 530.16375 194.19299 529.3125 188.625 529.3125 L 180.5 529.3125 z M 228.78125 529.3125 L 228.78125 535.3125 L 235.15625 535.3125 L 235.15625 529.3125 L 228.78125 529.3125 z M 240.3125 529.3125 L 240.3125 564.78125 L 246.6875 564.78125 L 246.6875 529.3125 L 240.3125 529.3125 z M 251.84375 529.3125 L 251.84375 564.78125 L 258.21875 564.78125 L 258.21875 529.3125 L 251.84375 529.3125 z M 187.09375 535.59375 L 188.375 535.59375 C 192.551 535.59375 194.811 535.97525 196.875 537.03125 C 200.235 538.75924 202.3125 542.565 202.3125 547.125 C 202.3125 551.39699 200.32425 555.17825 197.15625 556.90625 C 195.18825 558.01024 192.46725 558.5 188.53125 558.5 L 187.09375 558.5 L 187.09375 535.59375 z M 225 537.5625 C 222.264 537.5625 220.93 538.33325 219.25 540.78125 L 219.25 538.1875 L 213.40625 538.1875 L 213.40625 564.78125 L 219.78125 564.78125 L 219.78125 550 C 219.78125 545.872 221.66 543.81475 225.5 543.71875 L 225.5 537.5625 L 225 537.5625 z M 228.78125 538.1875 L 228.78125 564.78125 L 235.15625 564.78125 L 235.15625 538.1875 L 228.78125 538.1875 z "
       style="font-size:48px;font-style:normal;font-variant:normal;font-weight:bold;font-stretch:normal;text-align:end;line-height:125%;letter-spacing:0px;word-spacing:0px;text-anchor:end;fill:#ffffff;fill-opacity:0.28767124;stroke:none;font-family:URW Gothic L;-inkscape-font-specification:URW Gothic L Book"
       id="path3084"
       d="M 19.0625,464.03125 A 5.2895747,5.2895747 0 0 0 14,470.8125 l 10.40625,35.46875 a 5.2895747,5.2895747 0 0 0 5.0625,3.78125 l 5.1875,0 a 5.2895747,5.2895747 0 0 0 5.125,-4 l 0.65625,-2.6875 0.65625,2.65625 a 5.2895747,5.2895747 0 0 0 5.125,4.03125 l 5.21875,0 A 5.2895747,5.2895747 0 0 0 56.5,506.28125 l 2.75,-9.40625 0,7.90625 a 5.2895747,5.2895747 0 0 0 5.28125,5.28125 l 6.375,0 a 5.2895747,5.2895747 0 0 0 5.15625,-4.15625 c 3.258275,2.94307 7.483808,4.78125 12.1875,4.78125 2.12912,0 4.212577,-0.50663 6.1875,-1.3125 a 5.2895747,5.2895747 0 0 0 2.59375,0.6875 l 5.84375,0 a 5.2895747,5.2895747 0 0 0 5.1875,-4.1875 c 3.48508,2.97307 7.99713,4.8125 12.9375,4.8125 5.65677,0 10.94643,-2.44783 14.5625,-6.625 a 5.2895747,5.2895747 0 0 0 0.125,-0.15625 c 1.16129,-1.43779 2.14826,-3.09442 2.8125,-4.9375 a 5.2895747,5.2895747 0 0 0 0.96875,0.0937 l 13.28125,0 a 5.2895747,5.2895747 0 0 0 1.28125,-0.15625 l 0,5.875 a 5.2895747,5.2895747 0 0 0 5.28125,5.28125 l 9.46875,0 c 4.47942,0 8.40451,-0.66921 11.71875,-2.71875 0.012,-0.007 0.0192,-0.0238 0.0312,-0.0312 1.60319,-0.97934 2.87631,-2.31504 3.96875,-3.78125 3.57836,4.33914 8.9471,7.15625 14.96875,7.15625 4.79512,0 9.19802,-1.79638 12.625,-4.6875 a 5.2895747,5.2895747 0 0 0 5.15625,4.0625 l 6.375,0 a 5.2895747,5.2895747 0 0 0 5.28125,-5.28125 l 0,-3.6875 c 3.4326,5.72443 9.76044,9.59375 16.96875,9.59375 5.65677,0 10.94643,-2.44783 14.5625,-6.625 a 5.2895747,5.2895747 0 0 0 0.125,-0.15625 c 1.25627,-1.55539 2.34852,-3.3482 3,-5.375 a 5.2895747,5.2895747 0 0 0 0.25,-2.09375 5.2895747,5.2895747 0 0 0 0.34375,-1.03125 c 0.23857,-1.13319 0.34375,-2.35823 0.34375,-3.53125 0,-10.74592 -8.41487,-19.59375 -19.03125,-19.59375 -4.13651,0 -7.94358,1.35388 -11.09375,3.59375 a 5.2895747,5.2895747 0 0 0 -5.03125,-3.59375 l -0.5,0 c -1.37945,0 -2.88399,0.29414 -4.34375,0.8125 a 5.2895747,5.2895747 0 0 0 -1.40625,-0.1875 l -5.84375,0 a 5.2895747,5.2895747 0 0 0 -5.15625,4.15625 c -3.42177,-2.94626 -7.82641,-4.78125 -12.6875,-4.78125 -5.45405,0 -10.40067,2.3048 -13.9375,5.96875 -0.16135,-4.70823 -2.49837,-9.14932 -6.40625,-11.65625 a 5.2895747,5.2895747 0 0 0 0,-0.0312 c -3.14097,-1.9988 -6.90725,-2.53125 -12.4375,-2.53125 l -7.3125,0 a 5.2895747,5.2895747 0 0 0 -5.28125,5.28125 l 0,13.6875 A 5.2895747,5.2895747 0 0 0 152.75,482.84375 l -13.28125,0 a 5.2895747,5.2895747 0 0 0 -1.875,0.34375 c -3.10021,-6.42453 -9.47017,-10.90625 -17,-10.90625 -4.75585,0 -9.06475,1.80599 -12.4375,4.6875 l 0,-7.65625 a 5.2895747,5.2895747 0 0 0 -5.28125,-5.28125 l -6.375,0 a 5.2895747,5.2895747 0 0 0 -5.28125,5.28125 l 0,2.90625 c -0.997058,-0.1603 -2.001511,-0.28125 -3.03125,-0.28125 -4.712674,0 -8.91251,1.88321 -12.15625,4.875 A 5.2895747,5.2895747 0 0 0 76,476.71875 5.2895747,5.2895747 0 0 0 76.1875,475.3125 l 0,-6 a 5.2895747,5.2895747 0 0 0 -5.28125,-5.28125 l -6.375,0 a 5.2895747,5.2895747 0 0 0 -1.34375,0.15625 5.2895747,5.2895747 0 0 0 -0.03125,0 5.2895747,5.2895747 0 0 0 -1.34375,-0.15625 l -6.71875,0 A 5.2895747,5.2895747 0 0 0 49.96875,468 L 48.9375,472 48,468.0625 a 5.2895747,5.2895747 0 0 0 -5.15625,-4.03125 l -4.78125,0 a 5.2895747,5.2895747 0 0 0 -5.125,4.03125 l -1,4.0625 -1.03125,-4.09375 a 5.2895747,5.2895747 0 0 0 -5.125,-4 l -6.71875,0 z M 89.125,488.375 c 1.625166,0 2.5625,0.87226 2.5625,2.96875 0,2.00727 -1.039135,2.90625 -2.4375,2.90625 -1.564338,0 -2.625,-0.97001 -2.625,-3.09375 0,-1.84462 0.998111,-2.78125 2.5,-2.78125 z m 110.34375,0.3125 c 1.26225,0 2.4375,1.11737 2.4375,2.78125 0,1.72823 -1.18615,2.78125 -2.40625,2.78125 -1.38469,0 -2.4375,-0.94311 -2.4375,-2.875 0,-1.53337 1.27056,-2.6875 2.40625,-2.6875 z M 180.5,524.03125 a 5.2895747,5.2895747 0 0 0 -5.28125,5.28125 l 0,35.46875 A 5.2895747,5.2895747 0 0 0 180.5,570.0625 l 8.25,0 c 5.70982,0 10.0126,-0.62268 13.84375,-2.53125 l 0,0.0312 c 0.0134,-0.007 0.0179,-0.0247 0.0312,-0.0312 2.13863,-1.0567 3.9233,-2.52975 5.5,-4.21875 l 0,1.46875 a 5.2895747,5.2895747 0 0 0 5.28125,5.28125 l 6.375,0 a 5.2895747,5.2895747 0 0 0 4.5,-2.5 5.2895747,5.2895747 0 0 0 4.5,2.5 l 6.375,0 a 5.2895747,5.2895747 0 0 0 2.59375,-0.65625 5.2895747,5.2895747 0 0 0 2.5625,0.65625 l 6.375,0 a 5.2895747,5.2895747 0 0 0 2.59375,-0.65625 5.2895747,5.2895747 0 0 0 2.5625,0.65625 l 6.375,0 A 5.2895747,5.2895747 0 0 0 263.5,564.78125 l 0,-35.46875 a 5.2895747,5.2895747 0 0 0 -5.28125,-5.28125 l -6.375,0 a 5.2895747,5.2895747 0 0 0 -2.59375,0.65625 5.2895747,5.2895747 0 0 0 -2.5625,-0.65625 l -6.375,0 a 5.2895747,5.2895747 0 0 0 -2.59375,0.65625 5.2895747,5.2895747 0 0 0 -2.5625,-0.65625 l -6.375,0 A 5.2895747,5.2895747 0 0 0 223.5,529.3125 l 0,3.125 c -0.94971,0.0905 -1.88819,0.31693 -2.84375,0.65625 a 5.2895747,5.2895747 0 0 0 -1.40625,-0.1875 l -5.84375,0 a 5.2895747,5.2895747 0 0 0 -3.0625,0.96875 c -1.66545,-2.60058 -3.72993,-4.93271 -6.4375,-6.5625 -4.12708,-2.49048 -9.17419,-3.28125 -15.28125,-3.28125 l -8.125,0 z m 11.875,17.0625 c 0.92423,0.14191 1.52002,0.36271 2.09375,0.65625 1.33976,0.68901 2.5625,2.42143 2.5625,5.375 0,2.63092 -1.26907,4.50472 -2.40625,5.125 a 5.2895747,5.2895747 0 0 0 -0.0625,0.0312 c -0.38785,0.21757 -1.11464,0.47497 -2.1875,0.65625 l 0,-11.84375 z" />
    <image
       y="468.06476"
       x="546.68127"
       id="image3001"
       xlink:href="file:///home/jeff/minecraft/Power%20Tools/media/ads/wideBoreDrillHeld.png"
       height="258"
       width="240" />
    <rect
       style="color:#000000;fill:#000000;fill-opacity:1;fill-rule:nonzero;stroke:none;stroke-width:10;marker:none;visibility:visible;display:inline;overflow:visible;enable-background:accumulate"
       id="rect3973"
       width="180.67715"
       height="89.030487"
       x="593.99146"
       y="255.88559"
       rx="3.2613204"
       ry="3.2257423" />
    <image
       y="257.76498"
       x="595.85449"
       id="image3000"
       xlink:href="file:///home/jeff/minecraft/Power%20Tools/media/ads/recipeWideBoreDrill.png"
       height="85.271713"
       width="176.95113"
       style="stroke:none" />
    <flowRoot
       transform="translate(13.547156,-105.37182)"
       style="font-size:24px;font-style:normal;font-variant:normal;font-weight:normal;font-stretch:normal;line-height:125%;letter-spacing:0px;word-spacing:0px;fill:none;stroke:#000000;stroke-width:16;stroke-miterlimit:4;stroke-opacity:1;stroke-dasharray:none;font-family:DejaVu Sans;-inkscape-font-specification:DejaVu Sans"
       id="flowRoot3007-3"
       xml:space="preserve"><flowRegion
         id="flowRegion3009-9"><rect
           style="fill:none;stroke:#000000;stroke-width:16;stroke-miterlimit:4;stroke-opacity:1;stroke-dasharray:none"
           y="526.76929"
           x="10.356511"
           height="99.037926"
           width="440.34814"
           id="rect3011-0" /></flowRegion><flowPara
         style="font-size:40px;font-style:italic;font-variant:normal;font-weight:normal;font-stretch:normal;fill:none;stroke:#000000;stroke-width:16;stroke-miterlimit:4;stroke-opacity:1;stroke-dasharray:none;font-family:Minercraftory;-inkscape-font-specification:Minercraftory Italic"
         id="flowPara3015-3">Wide-Bore</flowPara><flowPara
         style="font-size:40px;font-style:italic;font-variant:normal;font-weight:normal;font-stretch:normal;fill:none;stroke:#000000;stroke-width:16;stroke-miterlimit:4;stroke-opacity:1;stroke-dasharray:none;font-family:Minercraftory;-inkscape-font-specification:Minercraftory Italic"
         id="flowPara3890">Drill</flowPara></flowRoot>    <flowRoot
       transform="translate(13.547156,-105.37182)"
       style="font-size:24px;font-style:normal;font-variant:normal;font-weight:normal;font-stretch:normal;line-height:125%;letter-spacing:0px;word-spacing:0px;fill:#fff349;fill-opacity:1;stroke:none;font-family:DejaVu Sans;-inkscape-font-specification:DejaVu Sans"
       id="flowRoot3007"
       xml:space="preserve"><flowRegion
         id="flowRegion3009"><rect
           style="fill:#fff349;fill-opacity:1;stroke:none"
           y="526.76929"
           x="10.356511"
           height="99.037926"
           width="440.34814"
           id="rect3011" /></flowRegion><flowPara
         style="font-size:40px;font-style:italic;font-variant:normal;font-weight:normal;font-stretch:normal;fill:#fff349;fill-opacity:1;stroke:none;font-family:Minercraftory;-inkscape-font-specification:Minercraftory Italic"
         id="flowPara3015">Wide-Bore</flowPara><flowPara
         style="font-size:40px;font-style:italic;font-variant:normal;font-weight:normal;font-stretch:normal;fill:#fff349;fill-opacity:1;stroke:none;font-family:Minercraftory;-inkscape-font-specification:Minercraftory Italic"
         id="flowPara3888">Drill</flowPara></flowRoot>    <flowRoot
       transform="translate(-10.680144,14.645755)"
       style="font-size:28px;font-style:normal;font-variant:normal;font-weight:normal;font-stretch:normal;text-align:start;line-height:125%;letter-spacing:0px;word-spacing:0px;text-anchor:start;fill:none;stroke:#ffffff;stroke-width:4;stroke-miterlimit:4;stroke-opacity:0.57077631;stroke-dasharray:none;font-family:Coolvetica;-inkscape-font-specification:Coolvetica"
       id="flowRoot3019-5"
       xml:space="preserve"><flowRegion
         id="flowRegion3021-6"><rect
           style="font-size:28px;font-style:normal;font-variant:normal;font-weight:normal;font-stretch:normal;text-align:start;text-anchor:start;fill:none;stroke:#ffffff;stroke-width:4;stroke-miterlimit:4;stroke-opacity:0.57077631;stroke-dasharray:none;font-family:Coolvetica;-inkscape-font-specification:Coolvetica"
           y="607.03223"
           x="25.891277"
           height="90.011986"
           width="414.74225"
           id="rect3023-3" /></flowRegion><flowPara
         id="flowPara3827-9"
         style="font-size:28px;font-style:normal;font-variant:normal;font-weight:normal;font-stretch:normal;text-align:start;text-anchor:start;fill:none;stroke:#ffffff;stroke-width:4;stroke-miterlimit:4;stroke-opacity:0.57077631;stroke-dasharray:none;font-family:Coolvetica;-inkscape-font-specification:Coolvetica">Digs a 3x3x1 chunk of blocks</flowPara><flowPara
         style="font-size:28px;font-style:normal;font-variant:normal;font-weight:normal;font-stretch:normal;text-align:start;text-anchor:start;fill:none;stroke:#ffffff;stroke-width:4;stroke-miterlimit:4;stroke-opacity:0.57077631;stroke-dasharray:none;font-family:Coolvetica;-inkscape-font-specification:Coolvetica"
         id="flowPara3894-5">Great for digging a tunnel!</flowPara></flowRoot>    <flowRoot
       transform="translate(-10.680144,14.645755)"
       style="font-size:28px;font-style:normal;font-variant:normal;font-weight:normal;font-stretch:normal;text-align:start;line-height:125%;letter-spacing:0px;word-spacing:0px;text-anchor:start;fill:#000000;fill-opacity:1;stroke:none;font-family:Coolvetica;-inkscape-font-specification:Coolvetica"
       id="flowRoot3019"
       xml:space="preserve"><flowRegion
         id="flowRegion3021"><rect
           style="font-size:28px;font-style:normal;font-variant:normal;font-weight:normal;font-stretch:normal;text-align:start;text-anchor:start;fill:#000000;fill-opacity:1;stroke:none;font-family:Coolvetica;-inkscape-font-specification:Coolvetica"
           y="607.03223"
           x="25.891277"
           height="90.011986"
           width="414.74225"
           id="rect3023" /></flowRegion><flowPara
         id="flowPara3827"
         style="font-size:28px;font-style:normal;font-variant:normal;font-weight:normal;font-stretch:normal;text-align:start;text-anchor:start;fill:#000000;fill-opacity:1;stroke:none;font-family:Coolvetica;-inkscape-font-specification:Coolvetica">Digs a 3x3x1 chunk of blocks</flowPara><flowPara
         style="font-size:28px;font-style:normal;font-variant:normal;font-weight:normal;font-stretch:normal;text-align:start;text-anchor:start;fill:#000000;fill-opacity:1;stroke:none;font-family:Coolvetica;-inkscape-font-specification:Coolvetica"
         id="flowPara3894">Great for digging a tunnel!</flowPara></flowRoot>    <flowRoot
       transform="translate(566.88224,-72.760547)"
       style="font-size:24px;font-style:normal;font-variant:normal;font-weight:bold;font-stretch:normal;text-align:end;line-height:125%;letter-spacing:0px;word-spacing:0px;text-anchor:end;fill:none;fill-opacity:1;stroke:#000000;font-family:BigNoodleTitling;-inkscape-font-specification:BigNoodleTitling Bold;stroke-opacity:1;stroke-width:4;stroke-miterlimit:4;stroke-dasharray:none"
       id="flowRoot4134-4-2"
       xml:space="preserve"><flowRegion
         id="flowRegion4136-9-6"><rect
           style="font-size:24px;font-style:normal;font-variant:normal;font-weight:bold;font-stretch:normal;text-align:end;text-anchor:end;fill:none;fill-opacity:1;font-family:BigNoodleTitling;-inkscape-font-specification:BigNoodleTitling Bold;stroke:#000000;stroke-opacity:1;stroke-width:4;stroke-miterlimit:4;stroke-dasharray:none"
           y="422.25601"
           x="22.310179"
           height="60.539009"
           width="180.02507"
           id="rect4138-6-9" /></flowRegion><flowPara
         id="flowPara3835-6"
         style="font-size:24px;font-style:normal;font-variant:normal;font-weight:bold;font-stretch:normal;text-align:end;text-anchor:end;fill:none;fill-opacity:1;font-family:BigNoodleTitling;-inkscape-font-specification:BigNoodleTitling Bold;stroke:#000000;stroke-opacity:1;stroke-width:4;stroke-miterlimit:4;stroke-dasharray:none">2 Redstone, 2 Sticks,</flowPara><flowPara
         id="flowPara3841-7"
         style="font-size:24px;font-style:normal;font-variant:normal;font-weight:bold;font-stretch:normal;text-align:end;text-anchor:end;fill:none;fill-opacity:1;font-family:BigNoodleTitling;-inkscape-font-specification:BigNoodleTitling Bold;stroke:#000000;stroke-opacity:1;stroke-width:4;stroke-miterlimit:4;stroke-dasharray:none">5 Iron Ingots</flowPara><flowPara
         id="flowPara3831-0"
         style="font-size:24px;font-style:normal;font-variant:normal;font-weight:bold;font-stretch:normal;text-align:end;text-anchor:end;fill:none;fill-opacity:1;font-family:BigNoodleTitling;-inkscape-font-specification:BigNoodleTitling Bold;stroke:#000000;stroke-opacity:1;stroke-width:4;stroke-miterlimit:4;stroke-dasharray:none" /></flowRoot>    <flowRoot
       transform="translate(566.88224,-72.760549)"
       style="font-size:24px;font-style:normal;font-variant:normal;font-weight:bold;font-stretch:normal;text-align:end;line-height:125%;letter-spacing:0px;word-spacing:0px;text-anchor:end;fill:#ffffff;fill-opacity:1;stroke:none;font-family:BigNoodleTitling;-inkscape-font-specification:BigNoodleTitling Bold"
       id="flowRoot4134-4"
       xml:space="preserve"><flowRegion
         id="flowRegion4136-9"><rect
           style="font-size:24px;font-style:normal;font-variant:normal;font-weight:bold;font-stretch:normal;text-align:end;text-anchor:end;fill:#ffffff;fill-opacity:1;font-family:BigNoodleTitling;-inkscape-font-specification:BigNoodleTitling Bold"
           y="422.25601"
           x="22.310179"
           height="60.539009"
           width="180.02507"
           id="rect4138-6" /></flowRegion><flowPara
         id="flowPara3835"
         style="font-size:24px;font-style:normal;font-variant:normal;font-weight:bold;font-stretch:normal;text-align:end;text-anchor:end;fill:#ffffff;fill-opacity:1;font-family:BigNoodleTitling;-inkscape-font-specification:BigNoodleTitling Bold">2 Redstone, 2 Sticks,</flowPara><flowPara
         id="flowPara3841"
         style="font-size:24px;font-style:normal;font-variant:normal;font-weight:bold;font-stretch:normal;text-align:end;text-anchor:end;fill:#ffffff;fill-opacity:1;font-family:BigNoodleTitling;-inkscape-font-specification:BigNoodleTitling Bold">5 Iron Ingots</flowPara><flowPara
         id="flowPara3831"
         style="font-size:24px;font-style:normal;font-variant:normal;font-weight:bold;font-stretch:normal;text-align:end;text-anchor:end;fill:#ffffff;fill-opacity:1;font-family:BigNoodleTitling;-inkscape-font-specification:BigNoodleTitling Bold" /></flowRoot>  </g>
</svg>
