<?xml version="1.0" encoding="UTF-8" standalone="no"?>
<!-- Created with Inkscape (http://www.inkscape.org/) -->

<svg
   xmlns:dc="http://purl.org/dc/elements/1.1/"
   xmlns:cc="http://creativecommons.org/ns#"
   xmlns:rdf="http://www.w3.org/1999/02/22-rdf-syntax-ns#"
   xmlns:svg="http://www.w3.org/2000/svg"
   xmlns="http://www.w3.org/2000/svg"
   xmlns:xlink="http://www.w3.org/1999/xlink"
   xmlns:sodipodi="http://sodipodi.sourceforge.net/DTD/sodipodi-0.dtd"
   xmlns:inkscape="http://www.inkscape.org/namespaces/inkscape"
   width="786"
   height="480.42166"
   id="svg2"
   version="1.1"
   inkscape:version="0.48.3.1 r9886"
   sodipodi:docname="wideBoreDrillBlocks.svg"
   inkscape:export-filename="/home/jeff/minecraft/Power Tools/media/ads/wideBoreDrillBlocks.png"
   inkscape:export-xdpi="90"
   inkscape:export-ydpi="90">
  <defs
     id="defs4" />
  <sodipodi:namedview
     id="base"
     pagecolor="#ffffff"
     bordercolor="#666666"
     borderopacity="1.0"
     inkscape:pageopacity="0.0"
     inkscape:pageshadow="2"
     inkscape:zoom="0.80215616"
     inkscape:cx="496.20931"
     inkscape:cy="318.17411"
     inkscape:document-units="px"
     inkscape:current-layer="layer1"
     showgrid="false"
     fit-margin-right="-68"
     fit-margin-top="0"
     fit-margin-left="0"
     fit-margin-bottom="0"
     inkscape:window-width="1366"
     inkscape:window-height="715"
     inkscape:window-x="0"
     inkscape:window-y="25"
     inkscape:window-maximized="1" />
  <metadata
     id="metadata7">
    <rdf:RDF>
      <cc:Work
         rdf:about="">
        <dc:format>image/svg+xml</dc:format>
        <dc:type
           rdf:resource="http://purl.org/dc/dcmitype/StillImage" />
        <dc:title></dc:title>
      </cc:Work>
    </rdf:RDF>
  </metadata>
  <g
     inkscape:label="Layer 1"
     inkscape:groupmode="layer"
     id="layer1"
     transform="translate(2.383055,-245.3432)">
    <image
       y="245.3432"
       x="-2.383055"
       id="image2993"
       xlink:href="file:///home/jeff/minecraft/Power%20Tools/media/raw%20ss/2013-05-27_21.51.14.png"
       height="480"
       width="854" />
    <path
       sodipodi:type="inkscape:offset"
       inkscape:radius="5.2890458"
       inkscape:original="M 19.0625 469.3125 L 29.46875 504.78125 L 34.65625 504.78125 L 40.5 481.3125 L 46.21875 504.78125 L 51.4375 504.78125 L 61.8125 469.3125 L 55.09375 469.3125 L 48.8125 494.0625 L 42.84375 469.3125 L 38.0625 469.3125 L 32 494.0625 L 25.78125 469.3125 L 19.0625 469.3125 z M 64.53125 469.3125 L 64.53125 475.3125 L 70.90625 475.3125 L 70.90625 469.3125 L 64.53125 469.3125 z M 96.5 469.3125 L 96.5 480.53125 C 94.628 478.46725 91.5475 477.21875 88.1875 477.21875 C 80.74751 477.21875 74.90625 483.4695 74.90625 491.4375 C 74.90625 499.30949 80.71401 505.40625 88.25 505.40625 C 91.85 505.40625 94.48725 504.19249 97.03125 501.3125 L 97.03125 504.78125 L 102.875 504.78125 L 102.875 469.3125 L 96.5 469.3125 z M 159.3125 469.3125 L 159.3125 504.78125 L 168.78125 504.78125 C 172.71725 504.78125 175.59 504.15649 177.75 502.8125 C 180.678 501.0365 182.375 497.86674 182.375 494.21875 C 182.375 492.01075 181.729 489.84624 180.625 488.40625 C 179.617 487.06225 178.6165 486.39749 176.3125 485.4375 C 179.1445 483.9495 180.25 482.06199 180.25 478.75 C 180.25 475.438 178.76275 472.66324 176.21875 471.03125 C 174.10675 469.68725 171.90499 469.3125 166.625 469.3125 L 159.3125 469.3125 z M 165.90625 475.75 L 168.59375 475.75 C 172.00175 475.75 173.6875 476.89575 173.6875 479.34375 C 173.6875 481.88774 171.984 483 168 483 L 165.90625 483 L 165.90625 475.75 z M 120.59375 477.5625 C 112.76976 477.5625 106.59375 483.7385 106.59375 491.5625 C 106.59375 499.33849 112.88801 505.40625 121 505.40625 C 125.368 505.40625 128.7785 503.80974 131.5625 500.59375 C 132.5705 499.34575 133.22425 498.25024 133.65625 496.90625 L 126.71875 496.90625 C 125.08675 498.82624 123.48375 499.53125 120.84375 499.53125 C 117.05175 499.53125 114.268 497.52849 113.5 494.3125 L 134.09375 494.3125 C 134.28575 493.4005 134.34375 492.83499 134.34375 491.875 C 134.34375 483.619 128.51374 477.5625 120.59375 477.5625 z M 199.40625 477.5625 C 191.67826 477.5625 185.34375 483.83675 185.34375 491.46875 C 185.34375 499.14874 191.69276 505.40625 199.46875 505.40625 C 207.19674 505.40625 213.625 499.17549 213.625 491.6875 C 213.625 483.7675 207.42224 477.5625 199.40625 477.5625 z M 228.84375 477.5625 C 226.10775 477.5625 224.77375 478.33325 223.09375 480.78125 L 223.09375 478.1875 L 217.25 478.1875 L 217.25 504.78125 L 223.625 504.78125 L 223.625 490 C 223.625 485.872 225.50375 483.81475 229.34375 483.71875 L 229.34375 477.5625 L 228.84375 477.5625 z M 245.46875 477.5625 C 237.64476 477.5625 231.46875 483.7385 231.46875 491.5625 C 231.46875 499.33849 237.76301 505.40625 245.875 505.40625 C 250.243 505.40625 253.6535 503.80974 256.4375 500.59375 C 257.4455 499.34575 258.09925 498.25024 258.53125 496.90625 L 251.59375 496.90625 C 249.96175 498.82624 248.35875 499.53125 245.71875 499.53125 C 241.92675 499.53125 239.143 497.52849 238.375 494.3125 L 258.96875 494.3125 C 259.16075 493.4005 259.21875 492.83499 259.21875 491.875 C 259.21875 483.619 253.38874 477.5625 245.46875 477.5625 z M 64.53125 478.1875 L 64.53125 504.78125 L 70.90625 504.78125 L 70.90625 478.1875 L 64.53125 478.1875 z M 89.125 483.09375 C 93.589 483.09375 96.96875 486.68775 96.96875 491.34375 C 96.96875 495.95174 93.57 499.53125 89.25 499.53125 C 84.786 499.53125 81.34375 495.86024 81.34375 491.15625 C 81.34375 486.64425 84.757 483.09375 89.125 483.09375 z M 120.71875 483.40625 C 124.65475 483.40625 127.2465 485.2795 128.0625 488.6875 L 113.3125 488.6875 C 114.3205 485.2795 116.92675 483.40625 120.71875 483.40625 z M 199.46875 483.40625 C 203.74075 483.40625 207.1875 487.05275 207.1875 491.46875 C 207.1875 495.93274 203.724 499.53125 199.5 499.53125 C 195.18 499.53125 191.78125 495.93499 191.78125 491.375 C 191.78125 487.007 195.29275 483.40625 199.46875 483.40625 z M 245.59375 483.40625 C 249.52975 483.40625 252.1215 485.2795 252.9375 488.6875 L 238.1875 488.6875 C 239.1955 485.2795 241.80175 483.40625 245.59375 483.40625 z M 139.46875 488.125 L 139.46875 493.78125 L 152.75 493.78125 L 152.75 488.125 L 139.46875 488.125 z M 165.90625 489.40625 L 169.03125 489.40625 C 173.59125 489.40625 175.75 490.8945 175.75 494.0625 C 175.75 497.13449 173.76425 498.5 169.15625 498.5 L 165.90625 498.5 L 165.90625 489.40625 z M 180.5 529.3125 L 180.5 564.78125 L 188.75 564.78125 C 194.12599 564.78125 197.37 564.25249 200.25 562.8125 C 205.72199 560.1245 208.9375 554.27699 208.9375 547.125 C 208.9375 540.405 206.1315 534.81974 201.1875 531.84375 C 198.4035 530.16375 194.19299 529.3125 188.625 529.3125 L 180.5 529.3125 z M 228.78125 529.3125 L 228.78125 535.3125 L 235.15625 535.3125 L 235.15625 529.3125 L 228.78125 529.3125 z M 240.3125 529.3125 L 240.3125 564.78125 L 246.6875 564.78125 L 246.6875 529.3125 L 240.3125 529.3125 z M 251.84375 529.3125 L 251.84375 564.78125 L 258.21875 564.78125 L 258.21875 529.3125 L 251.84375 529.3125 z M 187.09375 535.59375 L 188.375 535.59375 C 192.551 535.59375 194.811 535.97525 196.875 537.03125 C 200.235 538.75924 202.3125 542.565 202.3125 547.125 C 202.3125 551.39699 200.32425 555.17825 197.15625 556.90625 C 195.18825 558.01024 192.46725 558.5 188.53125 558.5 L 187.09375 558.5 L 187.09375 535.59375 z M 225 537.5625 C 222.264 537.5625 220.93 538.33325 219.25 540.78125 L 219.25 538.1875 L 213.40625 538.1875 L 213.40625 564.78125 L 219.78125 564.78125 L 219.78125 550 C 219.78125 545.872 221.66 543.81475 225.5 543.71875 L 225.5 537.5625 L 225 537.5625 z M 228.78125 538.1875 L 228.78125 564.78125 L 235.15625 564.78125 L 235.15625 538.1875 L 228.78125 538.1875 z "
       style="font-size:48px;font-style:normal;font-variant:normal;font-weight:bold;font-stretch:normal;text-align:end;line-height:125%;letter-spacing:0px;word-spacing:0px;text-anchor:end;fill:#ffffff;fill-opacity:0.28767124;stroke:none;font-family:URW Gothic L;-inkscape-font-specification:URW Gothic L Book"
       id="path3084"
       d="M 19.0625,464.03125 A 5.2895747,5.2895747 0 0 0 14,470.8125 l 10.40625,35.46875 a 5.2895747,5.2895747 0 0 0 5.0625,3.78125 l 5.1875,0 a 5.2895747,5.2895747 0 0 0 5.125,-4 l 0.65625,-2.6875 0.65625,2.65625 a 5.2895747,5.2895747 0 0 0 5.125,4.03125 l 5.21875,0 A 5.2895747,5.2895747 0 0 0 56.5,506.28125 l 2.75,-9.40625 0,7.90625 a 5.2895747,5.2895747 0 0 0 5.28125,5.28125 l 6.375,0 a 5.2895747,5.2895747 0 0 0 5.15625,-4.15625 c 3.258275,2.94307 7.483808,4.78125 12.1875,4.78125 2.12912,0 4.212577,-0.50663 6.1875,-1.3125 a 5.2895747,5.2895747 0 0 0 2.59375,0.6875 l 5.84375,0 a 5.2895747,5.2895747 0 0 0 5.1875,-4.1875 c 3.48508,2.97307 7.99713,4.8125 12.9375,4.8125 5.65677,0 10.94643,-2.44783 14.5625,-6.625 a 5.2895747,5.2895747 0 0 0 0.125,-0.15625 c 1.16129,-1.43779 2.14826,-3.09442 2.8125,-4.9375 a 5.2895747,5.2895747 0 0 0 0.96875,0.0937 l 13.28125,0 a 5.2895747,5.2895747 0 0 0 1.28125,-0.15625 l 0,5.875 a 5.2895747,5.2895747 0 0 0 5.28125,5.28125 l 9.46875,0 c 4.47942,0 8.40451,-0.66921 11.71875,-2.71875 0.012,-0.007 0.0192,-0.0238 0.0312,-0.0312 1.60319,-0.97934 2.87631,-2.31504 3.96875,-3.78125 3.57836,4.33914 8.9471,7.15625 14.96875,7.15625 4.79512,0 9.19802,-1.79638 12.625,-4.6875 a 5.2895747,5.2895747 0 0 0 5.15625,4.0625 l 6.375,0 a 5.2895747,5.2895747 0 0 0 5.28125,-5.28125 l 0,-3.6875 c 3.4326,5.72443 9.76044,9.59375 16.96875,9.59375 5.65677,0 10.94643,-2.44783 14.5625,-6.625 a 5.2895747,5.2895747 0 0 0 0.125,-0.15625 c 1.25627,-1.55539 2.34852,-3.3482 3,-5.375 a 5.2895747,5.2895747 0 0 0 0.25,-2.09375 5.2895747,5.2895747 0 0 0 0.34375,-1.03125 c 0.23857,-1.13319 0.34375,-2.35823 0.34375,-3.53125 0,-10.74592 -8.41487,-19.59375 -19.03125,-19.59375 -4.13651,0 -7.94358,1.35388 -11.09375,3.59375 a 5.2895747,5.2895747 0 0 0 -5.03125,-3.59375 l -0.5,0 c -1.37945,0 -2.88399,0.29414 -4.34375,0.8125 a 5.2895747,5.2895747 0 0 0 -1.40625,-0.1875 l -5.84375,0 a 5.2895747,5.2895747 0 0 0 -5.15625,4.15625 c -3.42177,-2.94626 -7.82641,-4.78125 -12.6875,-4.78125 -5.45405,0 -10.40067,2.3048 -13.9375,5.96875 -0.16135,-4.70823 -2.49837,-9.14932 -6.40625,-11.65625 a 5.2895747,5.2895747 0 0 0 0,-0.0312 c -3.14097,-1.9988 -6.90725,-2.53125 -12.4375,-2.53125 l -7.3125,0 a 5.2895747,5.2895747 0 0 0 -5.28125,5.28125 l 0,13.6875 A 5.2895747,5.2895747 0 0 0 152.75,482.84375 l -13.28125,0 a 5.2895747,5.2895747 0 0 0 -1.875,0.34375 c -3.10021,-6.42453 -9.47017,-10.90625 -17,-10.90625 -4.75585,0 -9.06475,1.80599 -12.4375,4.6875 l 0,-7.65625 a 5.2895747,5.2895747 0 0 0 -5.28125,-5.28125 l -6.375,0 a 5.2895747,5.2895747 0 0 0 -5.28125,5.28125 l 0,2.90625 c -0.997058,-0.1603 -2.001511,-0.28125 -3.03125,-0.28125 -4.712674,0 -8.91251,1.88321 -12.15625,4.875 A 5.2895747,5.2895747 0 0 0 76,476.71875 5.2895747,5.2895747 0 0 0 76.1875,475.3125 l 0,-6 a 5.2895747,5.2895747 0 0 0 -5.28125,-5.28125 l -6.375,0 a 5.2895747,5.2895747 0 0 0 -1.34375,0.15625 5.2895747,5.2895747 0 0 0 -0.03125,0 5.2895747,5.2895747 0 0 0 -1.34375,-0.15625 l -6.71875,0 A 5.2895747,5.2895747 0 0 0 49.96875,468 L 48.9375,472 48,468.0625 a 5.2895747,5.2895747 0 0 0 -5.15625,-4.03125 l -4.78125,0 a 5.2895747,5.2895747 0 0 0 -5.125,4.03125 l -1,4.0625 -1.03125,-4.09375 a 5.2895747,5.2895747 0 0 0 -5.125,-4 l -6.71875,0 z M 89.125,488.375 c 1.625166,0 2.5625,0.87226 2.5625,2.96875 0,2.00727 -1.039135,2.90625 -2.4375,2.90625 -1.564338,0 -2.625,-0.97001 -2.625,-3.09375 0,-1.84462 0.998111,-2.78125 2.5,-2.78125 z m 110.34375,0.3125 c 1.26225,0 2.4375,1.11737 2.4375,2.78125 0,1.72823 -1.18615,2.78125 -2.40625,2.78125 -1.38469,0 -2.4375,-0.94311 -2.4375,-2.875 0,-1.53337 1.27056,-2.6875 2.40625,-2.6875 z M 180.5,524.03125 a 5.2895747,5.2895747 0 0 0 -5.28125,5.28125 l 0,35.46875 A 5.2895747,5.2895747 0 0 0 180.5,570.0625 l 8.25,0 c 5.70982,0 10.0126,-0.62268 13.84375,-2.53125 l 0,0.0312 c 0.0134,-0.007 0.0179,-0.0247 0.0312,-0.0312 2.13863,-1.0567 3.9233,-2.52975 5.5,-4.21875 l 0,1.46875 a 5.2895747,5.2895747 0 0 0 5.28125,5.28125 l 6.375,0 a 5.2895747,5.2895747 0 0 0 4.5,-2.5 5.2895747,5.2895747 0 0 0 4.5,2.5 l 6.375,0 a 5.2895747,5.2895747 0 0 0 2.59375,-0.65625 5.2895747,5.2895747 0 0 0 2.5625,0.65625 l 6.375,0 a 5.2895747,5.2895747 0 0 0 2.59375,-0.65625 5.2895747,5.2895747 0 0 0 2.5625,0.65625 l 6.375,0 A 5.2895747,5.2895747 0 0 0 263.5,564.78125 l 0,-35.46875 a 5.2895747,5.2895747 0 0 0 -5.28125,-5.28125 l -6.375,0 a 5.2895747,5.2895747 0 0 0 -2.59375,0.65625 5.2895747,5.2895747 0 0 0 -2.5625,-0.65625 l -6.375,0 a 5.2895747,5.2895747 0 0 0 -2.59375,0.65625 5.2895747,5.2895747 0 0 0 -2.5625,-0.65625 l -6.375,0 A 5.2895747,5.2895747 0 0 0 223.5,529.3125 l 0,3.125 c -0.94971,0.0905 -1.88819,0.31693 -2.84375,0.65625 a 5.2895747,5.2895747 0 0 0 -1.40625,-0.1875 l -5.84375,0 a 5.2895747,5.2895747 0 0 0 -3.0625,0.96875 c -1.66545,-2.60058 -3.72993,-4.93271 -6.4375,-6.5625 -4.12708,-2.49048 -9.17419,-3.28125 -15.28125,-3.28125 l -8.125,0 z m 11.875,17.0625 c 0.92423,0.14191 1.52002,0.36271 2.09375,0.65625 1.33976,0.68901 2.5625,2.42143 2.5625,5.375 0,2.63092 -1.26907,4.50472 -2.40625,5.125 a 5.2895747,5.2895747 0 0 0 -0.0625,0.0312 c -0.38785,0.21757 -1.11464,0.47497 -2.1875,0.65625 l 0,-11.84375 z" />
    <flowRoot
       xml:space="preserve"
       id="flowRoot3007"
       style="font-size:24px;font-style:normal;font-variant:normal;font-weight:normal;font-stretch:normal;text-align:end;line-height:125%;letter-spacing:0px;word-spacing:0px;text-anchor:end;fill:#000000;fill-opacity:1;stroke:none;font-family:DejaVu Sans;-inkscape-font-specification:DejaVu Sans"
       transform="translate(-30.661292,-70.193056)"><flowRegion
         id="flowRegion3009"><rect
           id="rect3011"
           width="281.08655"
           height="115.90623"
           x="10.356511"
           y="526.76929"
           style="text-align:end;text-anchor:end" /></flowRegion><flowPara
         style="font-size:48px;font-style:normal;font-variant:normal;font-weight:bold;font-stretch:normal;text-align:end;text-anchor:end;font-family:URW Gothic L;-inkscape-font-specification:URW Gothic L Book"
         id="flowPara3004">Wide-Bore Drill</flowPara></flowRoot>    <path
       sodipodi:type="inkscape:offset"
       inkscape:radius="2.2037692"
       inkscape:original="M 99.53125 681.5625 C 98.05468 681.56253 96.99219 681.89064 96.3125 682.5625 C 95.63281 683.22658 95.28125 684.28908 95.28125 685.75 L 95.28125 686.65625 L 93.21875 686.65625 L 93.21875 688.34375 L 95.28125 688.34375 L 95.28125 699.78125 L 97.4375 699.78125 L 97.4375 688.34375 L 101 688.34375 L 101 686.65625 L 97.4375 686.65625 L 97.4375 685.5 C 97.4375 684.68752 97.60937 684.12502 97.90625 683.8125 C 98.21093 683.50002 98.72656 683.34377 99.5 683.34375 L 101.5625 683.34375 L 101.5625 681.5625 L 99.53125 681.5625 z M 144.21875 681.5625 L 144.21875 688.65625 C 143.76562 687.87501 143.1953 687.31251 142.5 686.9375 C 141.81249 686.5547 140.96874 686.34377 140 686.34375 C 138.41406 686.34377 137.125 686.98439 136.125 688.25 C 135.13282 689.51564 134.625 691.18751 134.625 693.25 C 134.625 695.3125 135.13282 696.95312 136.125 698.21875 C 137.125 699.48437 138.41406 700.125 140 700.125 C 140.96874 700.125 141.81249 699.9375 142.5 699.5625 C 143.1953 699.17969 143.76562 698.59375 144.21875 697.8125 L 144.21875 699.78125 L 146.375 699.78125 L 146.375 681.5625 L 144.21875 681.5625 z M 150.8125 681.5625 L 150.8125 684.28125 L 152.96875 684.28125 L 152.96875 681.5625 L 150.8125 681.5625 z M 187.9375 681.5625 L 187.9375 684.28125 L 190.09375 684.28125 L 190.09375 681.5625 L 187.9375 681.5625 z M 324.9375 681.5625 L 324.9375 699.78125 L 327.09375 699.78125 L 327.09375 681.5625 L 324.9375 681.5625 z M 28.21875 681.96875 C 25.484368 681.96877 23.32812 682.77346 21.78125 684.375 C 20.242185 685.96877 19.499999 688.20314 19.5 691.0625 C 19.499999 693.91407 20.242185 696.14844 21.78125 697.75 C 23.32812 699.34375 25.484368 700.125 28.21875 700.125 C 29.468739 700.125 30.648425 699.95312 31.75 699.625 C 32.851548 699.28906 33.867172 698.80469 34.78125 698.15625 L 34.78125 690.65625 L 28.5625 690.65625 L 28.5625 692.59375 L 32.4375 692.59375 L 32.4375 697.28125 C 31.914049 697.58594 31.312487 697.82032 30.65625 697.96875 C 29.999988 698.10939 29.242176 698.1875 28.40625 698.1875 C 26.265617 698.1875 24.671868 697.60157 23.59375 696.40625 C 22.523433 695.21094 21.968746 693.42188 21.96875 691.0625 C 21.968746 688.69532 22.523433 686.91408 23.59375 685.71875 C 24.671868 684.52345 26.265617 683.93752 28.40625 683.9375 C 29.492176 683.93752 30.546863 684.12502 31.53125 684.5 C 32.515611 684.87502 33.437485 685.41408 34.3125 686.15625 L 34.3125 683.65625 C 33.445297 683.10939 32.499985 682.68752 31.46875 682.40625 C 30.4453 682.12502 29.359364 681.96877 28.21875 681.96875 z M 332.96875 682.28125 L 332.96875 689.96875 L 333.21875 694.15625 L 335.09375 694.15625 L 335.34375 689.96875 L 335.34375 682.28125 L 332.96875 682.28125 z M 77.84375 682.9375 L 77.84375 686.65625 L 76.25 686.65625 L 76.25 688.34375 L 77.84375 688.34375 L 77.84375 695.46875 C 77.843748 697.10939 78.148435 698.25 78.78125 698.875 C 79.414059 699.49219 80.554682 699.78125 82.21875 699.78125 L 84.4375 699.78125 L 84.4375 698 L 82.21875 698 C 81.320307 698 80.73437 697.83595 80.4375 697.53125 C 80.148433 697.22657 79.999996 696.53907 80 695.46875 L 80 688.34375 L 84.4375 688.34375 L 84.4375 686.65625 L 80 686.65625 L 80 682.9375 L 77.84375 682.9375 z M 255.03125 682.9375 L 255.03125 686.65625 L 253.4375 686.65625 L 253.4375 688.34375 L 255.03125 688.34375 L 255.03125 695.46875 C 255.03125 697.10939 255.33594 698.25 255.96875 698.875 C 256.60156 699.49219 257.74219 699.78125 259.40625 699.78125 L 261.625 699.78125 L 261.625 698 L 259.40625 698 C 258.50781 698 257.92187 697.83595 257.625 697.53125 C 257.33594 697.22657 257.1875 696.53907 257.1875 695.46875 L 257.1875 688.34375 L 261.625 688.34375 L 261.625 686.65625 L 257.1875 686.65625 L 257.1875 682.9375 L 255.03125 682.9375 z M 45.5 686.34375 C 44.46093 686.34377 43.601556 686.54689 42.875 686.9375 C 42.148433 687.32033 41.54687 687.92189 41.09375 688.71875 L 41.09375 686.65625 L 38.9375 686.65625 L 38.9375 699.78125 L 41.09375 699.78125 L 41.09375 692.875 C 41.093746 691.39063 41.414058 690.25782 42.0625 689.46875 C 42.718745 688.6719 43.656244 688.28125 44.875 688.28125 C 45.218742 688.28125 45.531242 688.3047 45.8125 688.375 C 46.101554 688.43751 46.382803 688.54689 46.625 688.6875 L 46.59375 686.46875 C 46.37499 686.42975 46.179679 686.3906 46 686.375 C 45.820304 686.3515 45.648429 686.34377 45.5 686.34375 z M 53.875 686.34375 C 51.906245 686.34377 50.351558 686.98439 49.1875 688.25 C 48.031248 689.50782 47.437498 691.19532 47.4375 693.34375 C 47.437498 695.42188 48.062498 697.09375 49.28125 698.3125 C 50.507808 699.53125 52.156244 700.125 54.25 700.125 C 55.085929 700.125 55.90624 700.04688 56.71875 699.875 C 57.531238 699.70313 58.3203 699.45313 59.09375 699.125 L 59.09375 697.09375 C 58.328113 697.5 57.562489 697.79688 56.78125 698 C 56.007803 698.20314 55.203116 698.3125 54.375 698.3125 C 52.945305 698.3125 51.835932 697.9297 51.03125 697.15625 C 50.234371 696.37501 49.78125 695.23438 49.6875 693.75 L 59.625 693.75 L 59.625 692.6875 C 59.624987 690.73438 59.093737 689.19532 58.0625 688.0625 C 57.039052 686.92189 55.640616 686.34377 53.875 686.34375 z M 67.75 686.34375 C 67.046869 686.34376 66.335932 686.4375 65.59375 686.59375 C 64.851558 686.7422 64.070309 686.94532 63.28125 687.25 L 63.28125 689.25 C 63.937497 688.89063 64.632809 688.6172 65.34375 688.4375 C 66.054682 688.25777 66.781244 688.1875 67.53125 688.1875 C 68.71093 688.1875 69.632804 688.45314 70.28125 689 C 70.93749 689.53907 71.249989 690.28907 71.25 691.28125 L 71.25 691.5 L 68.25 691.5 C 66.289057 691.50001 64.804683 691.87501 63.8125 692.625 C 62.828123 693.37501 62.343749 694.49219 62.34375 695.96875 C 62.343749 697.23437 62.710936 698.24219 63.5 699 C 64.296872 699.75 65.374996 700.125 66.71875 700.125 C 67.781244 700.125 68.671867 699.9375 69.40625 699.5625 C 70.140616 699.17969 70.757802 698.60938 71.25 697.8125 L 71.25 699.78125 L 73.40625 699.78125 L 73.40625 692.3125 C 73.406237 690.31251 72.937488 688.79688 72 687.8125 C 71.06249 686.82813 69.648429 686.34376 67.75 686.34375 z M 108.46875 686.34375 C 106.58593 686.34376 105.10156 686.96875 104.03125 688.1875 C 102.96875 689.40625 102.4375 691.09375 102.4375 693.25 C 102.4375 695.39844 102.96875 697.08594 104.03125 698.3125 C 105.10156 699.53125 106.58593 700.125 108.46875 700.125 C 110.34374 700.125 111.80467 699.53125 112.875 698.3125 C 113.94529 697.08594 114.46874 695.39844 114.46875 693.25 C 114.46874 691.09375 113.94529 689.40625 112.875 688.1875 C 111.80467 686.96875 110.34374 686.34376 108.46875 686.34375 z M 124.53125 686.34375 C 123.49218 686.34377 122.63281 686.54689 121.90625 686.9375 C 121.17968 687.32033 120.57812 687.92189 120.125 688.71875 L 120.125 686.65625 L 117.96875 686.65625 L 117.96875 699.78125 L 120.125 699.78125 L 120.125 692.875 C 120.125 691.39063 120.44531 690.25782 121.09375 689.46875 C 121.74999 688.6719 122.68749 688.28125 123.90625 688.28125 C 124.24999 688.28125 124.56249 688.3047 124.84375 688.375 C 125.1328 688.43751 125.41406 688.54689 125.65625 688.6875 L 125.625 686.46875 C 125.40624 686.42975 125.21093 686.3906 125.03125 686.375 C 124.85155 686.3515 124.67968 686.34377 124.53125 686.34375 z M 161.90625 686.34375 C 160.29687 686.34377 158.98437 686.96095 158 688.1875 C 157.01562 689.41407 156.53125 691.03125 156.53125 693.0625 C 156.53125 695.08594 157.01562 696.71094 158 697.9375 C 158.98437 699.16406 160.29687 699.78125 161.90625 699.78125 C 162.87499 699.78125 163.67968 699.60156 164.375 699.21875 C 165.0703 698.83594 165.64842 698.24219 166.09375 697.46875 L 166.09375 698.5625 C 166.09374 700.05469 165.73436 701.14062 165.03125 701.875 C 164.32812 702.61718 163.28905 702.99999 161.875 703 C 161.23437 702.99999 160.58593 702.91406 159.96875 702.75 C 159.35156 702.58594 158.72656 702.34375 158.09375 702 L 158.09375 704.09375 C 158.72656 704.32812 159.39062 704.48437 160.0625 704.59375 C 160.73437 704.71093 161.46093 704.78124 162.21875 704.78125 C 164.26562 704.78124 165.78905 704.25 166.78125 703.15625 C 167.77342 702.07031 168.24998 700.39063 168.25 698.15625 L 168.25 686.65625 L 166.09375 686.65625 L 166.09375 688.65625 C 165.64842 687.88282 165.0703 687.32033 164.375 686.9375 C 163.67968 686.5547 162.87499 686.34377 161.90625 686.34375 z M 177.125 686.34375 C 175.51562 686.34377 174.23437 686.96095 173.25 688.1875 C 172.26562 689.41407 171.75 691.03125 171.75 693.0625 C 171.75 695.08594 172.26562 696.71094 173.25 697.9375 C 174.23437 699.16406 175.51562 699.78125 177.125 699.78125 C 178.09374 699.78125 178.92968 699.60156 179.625 699.21875 C 180.32031 698.83594 180.89843 698.24219 181.34375 697.46875 L 181.34375 698.5625 C 181.34374 700.05469 180.98437 701.14062 180.28125 701.875 C 179.57812 702.61718 178.50781 702.99999 177.09375 703 C 176.45312 702.99999 175.83594 702.91406 175.21875 702.75 C 174.60156 702.58594 173.97656 702.34375 173.34375 702 L 173.34375 704.09375 C 173.97656 704.32812 174.64062 704.48437 175.3125 704.59375 C 175.98437 704.71093 176.67968 704.78124 177.4375 704.78125 C 179.48436 704.78124 181.0078 704.25 182 703.15625 C 182.99218 702.07031 183.49999 700.39063 183.5 698.15625 L 183.5 686.65625 L 181.34375 686.65625 L 181.34375 688.65625 C 180.89843 687.88282 180.32031 687.32033 179.625 686.9375 C 178.92968 686.5547 178.09374 686.34377 177.125 686.34375 z M 200.90625 686.34375 C 199.99218 686.34377 199.20312 686.54689 198.5 686.9375 C 197.80468 687.32814 197.20312 687.9297 196.6875 688.71875 L 196.6875 686.65625 L 194.5 686.65625 L 194.5 699.78125 L 196.6875 699.78125 L 196.6875 692.375 C 196.68749 691.09376 197.01562 690.08595 197.6875 689.34375 C 198.35937 688.60158 199.27344 688.21877 200.4375 688.21875 C 201.40625 688.21877 202.14062 688.53908 202.625 689.15625 C 203.10937 689.77345 203.34374 690.69533 203.34375 691.9375 L 203.34375 699.78125 L 205.5 699.78125 L 205.5 691.875 C 205.49999 690.06251 205.11717 688.6797 204.34375 687.75 C 203.5703 686.81252 202.41406 686.34377 200.90625 686.34375 z M 214.25 686.34375 C 212.64062 686.34377 211.35937 686.96095 210.375 688.1875 C 209.39062 689.41407 208.875 691.03125 208.875 693.0625 C 208.875 695.08594 209.39062 696.71094 210.375 697.9375 C 211.35937 699.16406 212.64062 699.78125 214.25 699.78125 C 215.21874 699.78125 216.05468 699.60156 216.75 699.21875 C 217.44531 698.83594 218.02343 698.24219 218.46875 697.46875 L 218.46875 698.5625 C 218.46874 700.05469 218.10937 701.14062 217.40625 701.875 C 216.70312 702.61718 215.63281 702.99999 214.21875 703 C 213.57812 702.99999 212.96094 702.91406 212.34375 702.75 C 211.72656 702.58594 211.10156 702.34375 210.46875 702 L 210.46875 704.09375 C 211.10156 704.32812 211.76562 704.48437 212.4375 704.59375 C 213.10937 704.71093 213.80468 704.78124 214.5625 704.78125 C 216.60936 704.78124 218.1328 704.25 219.125 703.15625 C 220.11718 702.07031 220.62499 700.39063 220.625 698.15625 L 220.625 686.65625 L 218.46875 686.65625 L 218.46875 688.65625 C 218.02343 687.88282 217.44531 687.32033 216.75 686.9375 C 216.05468 686.5547 215.21874 686.34377 214.25 686.34375 z M 237.3125 686.34375 C 236.60937 686.34376 235.86719 686.4375 235.125 686.59375 C 234.38281 686.7422 233.63281 686.94532 232.84375 687.25 L 232.84375 689.25 C 233.5 688.89063 234.16406 688.6172 234.875 688.4375 C 235.58593 688.25777 236.34374 688.1875 237.09375 688.1875 C 238.27343 688.1875 239.16406 688.45314 239.8125 689 C 240.46874 689.53907 240.81249 690.28907 240.8125 691.28125 L 240.8125 691.5 L 237.78125 691.5 C 235.82031 691.50001 234.33594 691.87501 233.34375 692.625 C 232.35938 693.37501 231.875 694.49219 231.875 695.96875 C 231.875 697.23437 232.27344 698.24219 233.0625 699 C 233.85938 699.75 234.9375 700.125 236.28125 700.125 C 237.34375 700.125 238.23437 699.9375 238.96875 699.5625 C 239.70312 699.17969 240.3203 698.60938 240.8125 697.8125 L 240.8125 699.78125 L 242.96875 699.78125 L 242.96875 692.3125 C 242.96874 690.31251 242.49999 688.79688 241.5625 687.8125 C 240.62499 686.82813 239.21093 686.34376 237.3125 686.34375 z M 286.03125 686.34375 C 285.11718 686.34377 284.32812 686.54689 283.625 686.9375 C 282.92968 687.32814 282.32812 687.9297 281.8125 688.71875 L 281.8125 686.65625 L 279.625 686.65625 L 279.625 699.78125 L 281.8125 699.78125 L 281.8125 692.375 C 281.81249 691.09376 282.14062 690.08595 282.8125 689.34375 C 283.48437 688.60158 284.39844 688.21877 285.5625 688.21875 C 286.53125 688.21877 287.26562 688.53908 287.75 689.15625 C 288.23437 689.77345 288.46874 690.69533 288.46875 691.9375 L 288.46875 699.78125 L 290.625 699.78125 L 290.625 691.875 C 290.62499 690.06251 290.24217 688.6797 289.46875 687.75 C 288.6953 686.81252 287.53906 686.34377 286.03125 686.34375 z M 301.28125 686.34375 C 300.36718 686.34377 299.54687 686.54689 298.84375 686.9375 C 298.14843 687.32814 297.54687 687.9297 297.03125 688.71875 L 297.03125 686.65625 L 294.875 686.65625 L 294.875 699.78125 L 297.03125 699.78125 L 297.03125 692.375 C 297.03125 691.09376 297.35937 690.08595 298.03125 689.34375 C 298.70312 688.60158 299.61718 688.21877 300.78125 688.21875 C 301.74999 688.21877 302.48436 688.53908 302.96875 689.15625 C 303.45311 689.77345 303.68749 690.69533 303.6875 691.9375 L 303.6875 699.78125 L 305.84375 699.78125 L 305.84375 691.875 C 305.84374 690.06251 305.46093 688.6797 304.6875 687.75 C 303.91406 686.81252 302.78905 686.34377 301.28125 686.34375 z M 315.6875 686.34375 C 313.71875 686.34377 312.13281 686.98439 310.96875 688.25 C 309.8125 689.50782 309.25 691.19532 309.25 693.34375 C 309.25 695.42188 309.84375 697.09375 311.0625 698.3125 C 312.28906 699.53125 313.96875 700.125 316.0625 700.125 C 316.89843 700.125 317.71874 700.04688 318.53125 699.875 C 319.34374 699.70313 320.13281 699.45313 320.90625 699.125 L 320.90625 697.09375 C 320.14062 697.5 319.37499 697.79688 318.59375 698 C 317.82031 698.20314 317.01561 698.3125 316.1875 698.3125 C 314.7578 698.3125 313.64843 697.9297 312.84375 697.15625 C 312.04687 696.37501 311.5937 695.23438 311.5 693.75 L 321.40625 693.75 L 321.40625 692.6875 C 321.40624 690.73438 320.90623 689.19532 319.875 688.0625 C 318.85155 686.92189 317.45312 686.34377 315.6875 686.34375 z M 150.8125 686.65625 L 150.8125 699.78125 L 152.96875 699.78125 L 152.96875 686.65625 L 150.8125 686.65625 z M 187.9375 686.65625 L 187.9375 699.78125 L 190.09375 699.78125 L 190.09375 686.65625 L 187.9375 686.65625 z M 264.25 686.65625 L 264.25 694.625 C 264.25 696.4297 264.65625 697.78125 265.4375 698.71875 C 266.21875 699.65625 267.36718 700.125 268.875 700.125 C 269.78905 700.125 270.56249 699.94532 271.25 699.5625 C 271.9453 699.17188 272.57031 698.57813 273.09375 697.78125 L 273.09375 699.78125 L 275.25 699.78125 L 275.25 686.65625 L 273.09375 686.65625 L 273.09375 694.09375 C 273.09374 695.375 272.74218 696.41407 272.0625 697.15625 C 271.39062 697.89844 270.47655 698.25001 269.3125 698.25 C 268.34374 698.25001 267.60937 697.96094 267.125 697.34375 C 266.64062 696.71876 266.40624 695.77344 266.40625 694.53125 L 266.40625 686.65625 L 264.25 686.65625 z M 140.53125 688.15625 C 141.67187 688.15626 142.56249 688.59376 143.21875 689.5 C 143.87499 690.39844 144.21874 691.66407 144.21875 693.25 C 144.21874 694.83594 143.87499 696.0625 143.21875 696.96875 C 142.56249 697.86719 141.67187 698.3125 140.53125 698.3125 C 139.39062 698.3125 138.5 697.86719 137.84375 696.96875 C 137.19531 696.0625 136.87499 694.83594 136.875 693.25 C 136.87499 691.66407 137.19531 690.39844 137.84375 689.5 C 138.5 688.59376 139.39062 688.15626 140.53125 688.15625 z M 162.40625 688.15625 C 163.5703 688.15626 164.48437 688.57814 165.125 689.4375 C 165.77343 690.29689 166.09374 691.5 166.09375 693.0625 C 166.09374 694.61719 165.77343 695.82813 165.125 696.6875 C 164.48437 697.54688 163.5703 698 162.40625 698 C 161.24999 698 160.36718 697.54688 159.71875 696.6875 C 159.07812 695.82813 158.75 694.61719 158.75 693.0625 C 158.75 691.5 159.07812 690.29689 159.71875 689.4375 C 160.36718 688.57814 161.24999 688.15626 162.40625 688.15625 z M 177.65625 688.15625 C 178.82031 688.15626 179.73436 688.57814 180.375 689.4375 C 181.02342 690.29689 181.34374 691.5 181.34375 693.0625 C 181.34374 694.61719 181.02342 695.82813 180.375 696.6875 C 179.73436 697.54688 178.82031 698 177.65625 698 C 176.5 698 175.58594 697.54688 174.9375 696.6875 C 174.29687 695.82813 173.99999 694.61719 174 693.0625 C 173.99999 691.5 174.29687 690.29689 174.9375 689.4375 C 175.58594 688.57814 176.5 688.15626 177.65625 688.15625 z M 214.78125 688.15625 C 215.94531 688.15626 216.85936 688.57814 217.5 689.4375 C 218.14842 690.29689 218.46874 691.5 218.46875 693.0625 C 218.46874 694.61719 218.14842 695.82813 217.5 696.6875 C 216.85936 697.54688 215.94531 698 214.78125 698 C 213.625 698 212.71094 697.54688 212.0625 696.6875 C 211.42187 695.82813 211.12499 694.61719 211.125 693.0625 C 211.12499 691.5 211.42187 690.29689 212.0625 689.4375 C 212.71094 688.57814 213.625 688.15626 214.78125 688.15625 z M 53.90625 688.1875 C 54.968741 688.18751 55.828116 688.51563 56.46875 689.21875 C 57.117177 689.92188 57.45311 690.88283 57.46875 692.0625 L 49.78125 692.0625 C 49.890621 690.82814 50.281246 689.8672 51 689.1875 C 51.726557 688.50782 52.703118 688.18751 53.90625 688.1875 z M 108.46875 688.1875 C 109.61718 688.1875 110.51561 688.64846 111.1875 689.5625 C 111.85936 690.46876 112.18749 691.69532 112.1875 693.25 C 112.18749 694.8125 111.85936 696.03125 111.1875 696.9375 C 110.51561 697.84375 109.61718 698.3125 108.46875 698.3125 C 107.30468 698.3125 106.35937 697.8672 105.6875 696.96875 C 105.02343 696.06251 104.71874 694.82032 104.71875 693.25 C 104.71874 691.67969 105.04687 690.4297 105.71875 689.53125 C 106.39062 688.625 107.31249 688.1875 108.46875 688.1875 z M 315.6875 688.1875 C 316.74999 688.18751 317.60936 688.51563 318.25 689.21875 C 318.89842 689.92188 319.2344 690.88283 319.25 692.0625 L 311.5625 692.0625 C 311.67187 690.82814 312.09374 689.8672 312.8125 689.1875 C 313.53906 688.50782 314.48437 688.18751 315.6875 688.1875 z M 69.125 693.1875 L 71.25 693.1875 L 71.25 693.6875 C 71.249989 695.09376 70.882802 696.21094 70.15625 697.0625 C 69.437491 697.90625 68.507805 698.3125 67.3125 698.3125 C 66.445307 698.3125 65.757808 698.10156 65.25 697.65625 C 64.749996 697.20312 64.499997 696.60938 64.5 695.84375 C 64.499997 694.88282 64.828121 694.17969 65.5 693.78125 C 66.171869 693.38282 67.382807 693.18751 69.125 693.1875 z M 238.65625 693.1875 L 240.8125 693.1875 L 240.8125 693.6875 C 240.81249 695.09376 240.44531 696.21094 239.71875 697.0625 C 239 697.90625 238.03906 698.3125 236.84375 698.3125 C 235.97656 698.3125 235.28906 698.10156 234.78125 697.65625 C 234.28125 697.20312 234.03125 696.60938 234.03125 695.84375 C 234.03125 694.88282 234.35937 694.17969 235.03125 693.78125 C 235.70312 693.38282 236.91405 693.18751 238.65625 693.1875 z M 332.96875 696.8125 L 332.96875 699.78125 L 335.34375 699.78125 L 335.34375 696.8125 L 332.96875 696.8125 z "
       style="font-size:24px;font-style:normal;font-variant:normal;font-weight:normal;font-stretch:normal;line-height:125%;letter-spacing:0px;word-spacing:0px;fill:#ffffff;fill-opacity:0.28627452;stroke:none;font-family:DejaVu Sans;-inkscape-font-specification:DejaVu Sans"
       id="path3955"
       d="m 99.53125,679.34375 c -1.793427,4e-5 -3.510323,0.44453 -4.75,1.65625 l 0,0.0312 c -0.9192,0.90821 -1.315334,2.11329 -1.5,3.40625 l -0.0625,0 A 2.2039896,2.2039896 0 0 0 91,686.65625 l 0,1.6875 a 2.2039896,2.2039896 0 0 0 2.0625,2.1875 l 0,9.25 A 2.2039896,2.2039896 0 0 0 95.28125,702 l 2.15625,0 a 2.2039896,2.2039896 0 0 0 2.21875,-2.21875 l 0,-9.21875 0.96875,0 c -0.19518,0.86567 -0.40625,1.73736 -0.40625,2.6875 0,2.51173 0.67682,4.79213 2.15625,6.5 a 2.2039896,2.2039896 0 0 0 0,0.0312 c 1.50276,1.71118 3.74762,2.5625 6.09375,2.5625 2.34023,0 4.57025,-0.86333 6.0625,-2.5625 a 2.2039896,2.2039896 0 0 0 0,-0.0312 c 0.55744,-0.63883 0.88751,-1.40644 1.21875,-2.1875 l 0,2.21875 A 2.2039896,2.2039896 0 0 0 117.96875,702 l 2.15625,0 a 2.2039896,2.2039896 0 0 0 2.21875,-2.21875 l 0,-6.90625 c 0,-1.16734 0.21991,-1.73522 0.4375,-2 0.22617,-0.27463 0.37716,-0.375 1.125,-0.375 0.24351,0 0.38569,-0.005 0.40625,0 a 2.2039896,2.2039896 0 0 0 0.0625,0.0312 c 0.0586,0.0127 0.15684,0.0447 0.1875,0.0625 a 2.2039896,2.2039896 0 0 0 3.3125,-1.9375 l -0.0312,-2.21875 A 2.2039896,2.2039896 0 0 0 126,684.3125 c -0.16866,-0.0301 -0.39421,-0.0932 -0.6875,-0.125 -0.0354,-0.005 -0.0593,0.004 -0.0937,0 -0.25465,-0.0286 -0.48958,-0.0625 -0.6875,-0.0625 -1.13372,2e-5 -2.15692,0.32784 -3.125,0.75 a 2.2039896,2.2039896 0 0 0 -1.28125,-0.4375 l -2.15625,0 a 2.2039896,2.2039896 0 0 0 -2.21875,2.21875 l 0,2.28125 c -0.33218,-0.78378 -0.65749,-1.57964 -1.21875,-2.21875 -1.47993,-1.68514 -3.69779,-2.59374 -6.0625,-2.59375 -2.0333,10e-6 -3.86349,0.80389 -5.3125,2.0625 a 2.2039896,2.2039896 0 0 0 -0.46875,-0.9375 2.2039896,2.2039896 0 0 0 1.09375,-1.90625 l 0,-1.78125 a 2.2039896,2.2039896 0 0 0 -2.21875,-2.21875 l -2.03125,0 z m 44.6875,0 A 2.2039896,2.2039896 0 0 0 142,681.5625 l 0,3.0625 c -0.66591,-0.18293 -1.27584,-0.49999 -2,-0.5 -2.17938,3e-5 -4.24688,1.04538 -5.59375,2.75 -1.34829,1.7199 -2,3.95077 -2,6.375 0,2.42424 0.66257,4.63772 2,6.34375 1.34687,1.70462 3.41434,2.75 5.59375,2.75 1.0663,0 2.07755,-0.30304 3.03125,-0.71875 a 2.2039896,2.2039896 0 0 0 1.1875,0.375 l 2.15625,0 a 2.2039896,2.2039896 0 0 0 2.21875,-2.21875 A 2.2039896,2.2039896 0 0 0 150.8125,702 l 2.15625,0 a 2.2039896,2.2039896 0 0 0 2.21875,-2.21875 l 0,-2.5625 c 0.30043,0.73281 0.59905,1.47735 1.09375,2.09375 0.23727,0.29565 0.59613,0.43689 0.875,0.6875 a 2.2039896,2.2039896 0 0 0 -1.28125,2 l 0,2.09375 a 2.2039896,2.2039896 0 0 0 1.46875,2.0625 c 0.80453,0.29797 1.6019,0.49914 2.375,0.625 l 0,-0.0312 c 0.78162,0.13473 1.61682,0.24999 2.5,0.25 2.41855,-10e-6 4.64846,-0.72712 6.15625,-2.375 l 0.0312,0.0312 c 0.006,-0.007 -0.006,-0.0244 0,-0.0312 1.50408,-1.66013 2.06248,-3.9315 2.0625,-6.46875 l 0,-0.84375 c 0.30167,0.70292 0.58916,1.41021 1.0625,2 0.23478,0.29254 0.59868,0.43811 0.875,0.6875 a 2.2039896,2.2039896 0 0 0 -1.28125,2 l 0,2.09375 a 2.2039896,2.2039896 0 0 0 1.46875,2.0625 c 0.80453,0.29797 1.6019,0.49914 2.375,0.625 l 0,-0.0312 c 0.77006,0.13282 1.5857,0.24999 2.46875,0.25 2.41855,-10e-6 4.64846,-0.72711 6.15625,-2.375 l 0.0312,0.0312 c 0.006,-0.007 -0.006,-0.0244 0,-0.0312 1.48905,-1.64329 2.09374,-3.91109 2.09375,-6.46875 l 0,1.625 A 2.2039896,2.2039896 0 0 0 187.9375,702 l 2.15625,0 a 2.2039896,2.2039896 0 0 0 2.1875,-2.125 A 2.2039896,2.2039896 0 0 0 194.5,702 l 2.1875,0 a 2.2039896,2.2039896 0 0 0 2.21875,-2.21875 l 0,-7.40625 c -1e-5,-0.90497 0.16091,-1.29148 0.40625,-1.5625 0.25749,-0.28443 0.44407,-0.37499 1.125,-0.375 0.483,10e-6 0.42364,0.0363 0.46875,0.0937 0.0395,0.0504 0.21874,0.44127 0.21875,1.40625 l 0,7.84375 A 2.2039896,2.2039896 0 0 0 203.34375,702 l 2.15625,0 a 2.2039896,2.2039896 0 0 0 2.21875,-2.21875 l 0,-2.25 c 0.28485,0.6147 0.51679,1.25704 0.9375,1.78125 0.23478,0.29254 0.59868,0.43811 0.875,0.6875 a 2.2039896,2.2039896 0 0 0 -1.28125,2 l 0,2.09375 a 2.2039896,2.2039896 0 0 0 1.46875,2.0625 c 0.80453,0.29797 1.6019,0.49914 2.375,0.625 l 0,-0.0312 c 0.77006,0.13282 1.5857,0.24999 2.46875,0.25 2.41855,-10e-6 4.64846,-0.72711 6.15625,-2.375 l 0.0312,0.0312 c 0.006,-0.007 -0.006,-0.0244 0,-0.0312 1.48905,-1.64329 2.09374,-3.91109 2.09375,-6.46875 l 0,-11.5 A 2.2039896,2.2039896 0 0 0 220.625,684.4375 l -2.15625,0 a 2.2039896,2.2039896 0 0 0 -1.25,0.40625 c -0.92007,-0.40064 -1.89578,-0.71873 -2.96875,-0.71875 -2.17278,3e-5 -4.25099,1.01438 -5.59375,2.6875 -0.56855,0.70843 -0.95924,1.53674 -1.28125,2.40625 -0.25394,-1.05956 -0.65754,-2.05013 -1.34375,-2.875 -1.23009,-1.49096 -3.16046,-2.21872 -5.125,-2.21875 -1.05129,2e-5 -2.02135,0.33594 -2.9375,0.75 a 2.2039896,2.2039896 0 0 0 -1.28125,-0.4375 l -2.1875,0 a 2.2039896,2.2039896 0 0 0 -2.1875,2.125 2.2039896,2.2039896 0 0 0 -0.375,-1.09375 2.2039896,2.2039896 0 0 0 0.375,-1.1875 l 0,-2.71875 a 2.2039896,2.2039896 0 0 0 -2.21875,-2.21875 l -2.15625,0 a 2.2039896,2.2039896 0 0 0 -2.21875,2.21875 l 0,2.71875 a 2.2039896,2.2039896 0 0 0 0.375,1.1875 2.2039896,2.2039896 0 0 0 -0.375,1.1875 A 2.2039896,2.2039896 0 0 0 183.5,684.4375 l -2.15625,0 a 2.2039896,2.2039896 0 0 0 -1.25,0.40625 c -0.92007,-0.40064 -1.89578,-0.71873 -2.96875,-0.71875 -2.17278,3e-5 -4.25099,1.01438 -5.59375,2.6875 -0.47233,0.58853 -0.7608,1.29778 -1.0625,2 l 0,-2.15625 A 2.2039896,2.2039896 0 0 0 168.25,684.4375 l -2.15625,0 a 2.2039896,2.2039896 0 0 0 -1.25,0.40625 c -0.90326,-0.3947 -1.86634,-0.71873 -2.9375,-0.71875 -2.17278,3e-5 -4.26799,0.99663 -5.625,2.6875 -0.49365,0.6151 -0.79326,1.36164 -1.09375,2.09375 l 0,-2.25 a 2.2039896,2.2039896 0 0 0 -0.375,-1.1875 2.2039896,2.2039896 0 0 0 0.375,-1.1875 l 0,-2.71875 a 2.2039896,2.2039896 0 0 0 -2.21875,-2.21875 l -2.15625,0 a 2.2039896,2.2039896 0 0 0 -2.21875,2.21875 2.2039896,2.2039896 0 0 0 -2.21875,-2.21875 l -2.15625,0 z m 180.71875,0 a 2.2039896,2.2039896 0 0 0 -2.21875,2.21875 l 0,7.15625 c -0.32939,-0.75638 -0.66034,-1.51158 -1.21875,-2.125 -1.44267,-1.60782 -3.56584,-2.46872 -5.8125,-2.46875 -2.4468,2e-5 -4.75537,0.89806 -6.34375,2.625 -0.71677,0.77973 -1.21785,1.72469 -1.59375,2.71875 -0.24361,-1.15383 -0.63745,-2.23843 -1.375,-3.125 -1.21155,-1.46851 -3.12922,-2.21872 -5.09375,-2.21875 -1.05287,2e-5 -2.03521,0.32942 -2.96875,0.75 a 2.2039896,2.2039896 0 0 0 -1.28125,-0.4375 l -2.15625,0 a 2.2039896,2.2039896 0 0 0 -2.21875,2.21875 l 0,3.71875 c -0.1798,-1.508 -0.5761,-2.92067 -1.5,-4.03125 -1.23009,-1.49096 -3.16046,-2.21872 -5.125,-2.21875 -1.05129,2e-5 -2.02135,0.33594 -2.9375,0.75 a 2.2039896,2.2039896 0 0 0 -1.28125,-0.4375 l -2.1875,0 a 2.2039896,2.2039896 0 0 0 -2.1875,2 2.2039896,2.2039896 0 0 0 -2.1875,-2 l -2.15625,0 a 2.2039896,2.2039896 0 0 0 -2.21875,2.21875 l 0,7.4375 c -10e-6,0.87813 -0.1941,1.29672 -0.4375,1.5625 a 2.2039896,2.2039896 0 0 0 0,0.0312 c -0.23686,0.26165 -0.40469,0.34376 -1.125,0.34375 -0.49562,10e-6 -0.42812,-0.0349 -0.4375,-0.0625 -0.0427,-0.0621 -0.25001,-0.49248 -0.25,-1.4375 l 0,-7.875 a 2.2039896,2.2039896 0 0 0 -2.21875,-2.21875 l -2.15625,0 a 2.2039896,2.2039896 0 0 0 -1.3125,0.46875 2.2039896,2.2039896 0 0 0 -1.3125,-0.46875 l -2.21875,0 0,-1.5 a 2.2039896,2.2039896 0 0 0 -2.21875,-2.21875 l -2.15625,0 a 2.2039896,2.2039896 0 0 0 -2.21875,2.21875 l 0,1.625 a 2.2039896,2.2039896 0 0 0 -1.59375,2.09375 l 0,1.6875 a 2.2039896,2.2039896 0 0 0 1.59375,2.125 l 0,5 c 0,1.91349 0.25882,3.6503 1.59375,4.96875 a 2.2039896,2.2039896 0 0 0 0.0312,0 c 1.33419,1.30126 3.04948,1.5625 4.96875,1.5625 l 2.21875,0 a 2.2039896,2.2039896 0 0 0 2.15625,-1.84375 c 1.23122,1.45293 3.1444,2.1875 5.09375,2.1875 1.05087,0 2.05499,-0.31199 3,-0.75 A 2.2039896,2.2039896 0 0 0 273.09375,702 l 2.15625,0 a 2.2039896,2.2039896 0 0 0 2.1875,-2 2.2039896,2.2039896 0 0 0 2.1875,2 l 2.1875,0 a 2.2039896,2.2039896 0 0 0 2.21875,-2.21875 l 0,-7.40625 c -10e-6,-0.90497 0.16091,-1.29148 0.40625,-1.5625 0.25749,-0.28443 0.44407,-0.37499 1.125,-0.375 0.483,10e-6 0.42364,0.0363 0.46875,0.0937 0.0396,0.0504 0.21874,0.44127 0.21875,1.40625 l 0,7.84375 A 2.2039896,2.2039896 0 0 0 288.46875,702 l 2.15625,0 a 2.2039896,2.2039896 0 0 0 2.125,-1.625 2.2039896,2.2039896 0 0 0 2.125,1.625 l 2.15625,0 a 2.2039896,2.2039896 0 0 0 2.21875,-2.21875 l 0,-7.40625 c 0,-0.90499 0.16092,-1.29149 0.40625,-1.5625 0.2575,-0.28444 0.44406,-0.37499 1.125,-0.375 0.48298,10e-6 0.42362,0.0362 0.46875,0.0937 0.0396,0.0504 0.21874,0.44128 0.21875,1.40625 l 0,7.84375 A 2.2039896,2.2039896 0 0 0 303.6875,702 l 2.15625,0 a 2.2039896,2.2039896 0 0 0 2.21875,-2.21875 l 0,-2.21875 c 0.38809,0.8269 0.7837,1.6587 1.4375,2.3125 1.68628,1.67555 4.05212,2.46875 6.5625,2.46875 0.97323,0 1.96343,-0.10644 2.9375,-0.3125 0.95318,-0.20163 1.8822,-0.49358 2.78125,-0.875 a 2.2039896,2.2039896 0 0 0 1,-0.90625 2.2039896,2.2039896 0 0 0 2.15625,1.75 l 2.15625,0 a 2.2039896,2.2039896 0 0 0 2.21875,-2.21875 l 0,-18.21875 a 2.2039896,2.2039896 0 0 0 -2.21875,-2.21875 l -2.15625,0 z M 28.21875,679.75 c -3.166732,2e-5 -6.029692,1.02145 -8.03125,3.09375 -2.008093,2.07947 -2.906251,4.97804 -2.90625,8.21875 -1e-6,3.23396 0.902895,6.13405 2.90625,8.21875 2.009041,2.06993 4.877104,3.0625 8.03125,3.0625 1.452009,0 2.843926,-0.20286 4.15625,-0.59375 a 2.2039896,2.2039896 0 0 0 0.03125,-0.0312 c 1.305377,-0.3981 2.536272,-0.9555 3.65625,-1.75 a 2.2039896,2.2039896 0 0 0 0.65625,-0.78125 l 0,0.59375 A 2.2039896,2.2039896 0 0 0 38.9375,702 l 2.15625,0 a 2.2039896,2.2039896 0 0 0 2.21875,-2.21875 l 0,-6.90625 c -3e-6,-1.16733 0.219912,-1.73522 0.4375,-2 0.226179,-0.27464 0.377163,-0.375 1.125,-0.375 0.243515,0 0.385699,-0.005 0.40625,0 a 2.2039896,2.2039896 0 0 0 0.0625,0.0312 c 0.0586,0.0127 0.156793,0.0447 0.1875,0.0625 a 2.2039896,2.2039896 0 0 0 0.125,0.0625 c -0.212005,0.86407 -0.437501,1.74074 -0.4375,2.6875 -2e-6,2.51999 0.835069,4.86632 2.5,6.53125 1.673004,1.66235 4.020862,2.46875 6.53125,2.46875 0.973228,0 1.963434,-0.10644 2.9375,-0.3125 0.953179,-0.20163 1.882201,-0.49359 2.78125,-0.875 a 2.2039896,2.2039896 0 0 0 1.3125,-1.625 c 0.230334,0.35714 0.375811,0.76316 0.6875,1.0625 a 2.2039896,2.2039896 0 0 0 0.03125,0 c 1.252298,1.17864 2.964994,1.75 4.71875,1.75 1.186508,0 2.288516,-0.2691 3.3125,-0.71875 a 2.2039896,2.2039896 0 0 0 0.03125,0 A 2.2039896,2.2039896 0 0 0 71.25,702 l 2.15625,0 a 2.2039896,2.2039896 0 0 0 2.21875,-2.21875 l 0,-4.3125 c -2e-6,1.91349 0.25881,3.6503 1.59375,4.96875 a 2.2039896,2.2039896 0 0 0 0.03125,0 C 78.584185,701.73875 80.299475,702 82.21875,702 l 2.21875,0 a 2.2039896,2.2039896 0 0 0 2.21875,-2.21875 l 0,-1.78125 a 2.2039896,2.2039896 0 0 0 -2.21875,-2.21875 l -2.1875,0 c -0.01969,-0.11893 -0.03125,-0.15315 -0.03125,-0.3125 l 0,-4.90625 2.21875,0 a 2.2039896,2.2039896 0 0 0 2.21875,-2.21875 l 0,-1.6875 A 2.2039896,2.2039896 0 0 0 84.4375,684.4375 l -2.21875,0 0,-1.5 A 2.2039896,2.2039896 0 0 0 80,680.71875 l -2.15625,0 A 2.2039896,2.2039896 0 0 0 75.625,682.9375 l 0,1.625 a 2.2039896,2.2039896 0 0 0 -1.59375,2.09375 l 0,0.375 c -0.168587,-0.23478 -0.234877,-0.53724 -0.4375,-0.75 -1.451751,-1.52431 -3.570477,-2.15624 -5.84375,-2.15625 -0.888425,10e-6 -1.7573,0.13787 -2.59375,0.3125 -0.0099,0.002 -0.02132,-0.002 -0.03125,0 -0.822258,0.16559 -1.697204,0.39175 -2.625,0.75 a 2.2039896,2.2039896 0 0 0 -1.4375,2.0625 l 0,1.65625 c -0.345823,-0.84486 -0.765833,-1.64333 -1.375,-2.3125 -1.44267,-1.60782 -3.56584,-2.46872 -5.8125,-2.46875 -1.935246,2e-5 -3.662709,0.7283 -5.125,1.8125 a 2.2039896,2.2039896 0 0 0 -1.78125,-1.625 c -0.168661,-0.0301 -0.394209,-0.0932 -0.6875,-0.125 -0.03544,-0.005 -0.05928,0.004 -0.09375,0 -0.254651,-0.0286 -0.489581,-0.0625 -0.6875,-0.0625 -1.133719,2e-5 -2.156918,0.32784 -3.125,0.75 a 2.2039896,2.2039896 0 0 0 -1.28125,-0.4375 l -2.15625,0 a 2.2039896,2.2039896 0 0 0 -2.21875,2.21875 l 0,2.9375 a 2.2039896,2.2039896 0 0 0 -1.9375,-1.15625 l -6.21875,0 a 2.2039896,2.2039896 0 0 0 -2.21875,2.21875 l 0,1.9375 a 2.2039896,2.2039896 0 0 0 2.21875,2.21875 l 1.65625,0 0,0.96875 c -0.01412,0.003 -0.01701,0.0279 -0.03125,0.0312 -0.01041,0.002 -0.02078,-0.002 -0.03125,0 -0.475924,0.0998 -1.063519,0.15625 -1.75,0.15625 -1.722363,0 -2.562587,-0.38306 -3.15625,-1.03125 -0.593737,-0.66307 -1.062503,-1.86102 -1.0625,-3.875 -3e-6,-2.02291 0.465559,-3.20834 1.0625,-3.875 0.593662,-0.64818 1.433877,-1.03123 3.15625,-1.03125 0.832278,2e-5 1.620327,0.13068 2.34375,0.40625 0.755573,0.28786 1.430843,0.69248 2.125,1.28125 a 2.2039896,2.2039896 0 0 0 3.65625,-1.6875 l 0,-2.5 A 2.2039896,2.2039896 0 0 0 35.5,681.78125 c -1.045858,-0.65952 -2.196414,-1.16149 -3.4375,-1.5 -1.206401,-0.3315 -2.501901,-0.53123 -3.84375,-0.53125 z m 304.75,0.3125 a 2.2039896,2.2039896 0 0 0 -2.21875,2.21875 l 0,7.6875 a 2.2039896,2.2039896 0 0 0 0.0312,0.125 l 0.25,4.1875 a 2.2039896,2.2039896 0 0 0 0.3125,1.03125 2.2039896,2.2039896 0 0 0 -0.59375,1.5 l 0,2.96875 A 2.2039896,2.2039896 0 0 0 332.96875,702 l 2.375,0 a 2.2039896,2.2039896 0 0 0 2.21875,-2.21875 l 0,-2.96875 a 2.2039896,2.2039896 0 0 0 -0.59375,-1.5 2.2039896,2.2039896 0 0 0 0.3125,-1.03125 l 0.25,-4.1875 a 2.2039896,2.2039896 0 0 0 0.0312,-0.125 l 0,-7.6875 a 2.2039896,2.2039896 0 0 0 -2.21875,-2.21875 l -2.375,0 z m -95.65625,4.0625 c -0.88854,10e-6 -1.77623,0.13541 -2.625,0.3125 -0.01,0.002 -0.0213,-0.002 -0.0312,0 -0.83293,0.16795 -1.6841,0.39875 -2.59375,0.75 a 2.2039896,2.2039896 0 0 0 -1.4375,2.0625 l 0,2 a 2.2039896,2.2039896 0 0 0 1.15625,1.90625 c -1.36098,1.19328 -2.125,2.97639 -2.125,4.8125 0,1.72814 0.64922,3.44777 1.875,4.625 a 2.2039896,2.2039896 0 0 0 0.0312,0 c 1.2523,1.17863 2.965,1.75 4.71875,1.75 1.18651,0 2.28852,-0.2691 3.3125,-0.71875 a 2.2039896,2.2039896 0 0 0 0.0312,0 2.2039896,2.2039896 0 0 0 1.1875,0.375 l 2.15625,0 a 2.2039896,2.2039896 0 0 0 2.21875,-2.21875 l 0,-7.46875 c -1e-5,-2.34433 -0.56768,-4.49447 -2.03125,-6.03125 -1.45175,-1.52431 -3.57048,-2.15624 -5.84375,-2.15625 z m -88.71875,0.15625 a 2.2039896,2.2039896 0 0 0 0.375,1.1875 2.2039896,2.2039896 0 0 0 -0.375,1.1875 l 0,-2.375 z m -73.25,6.09375 a 2.2039896,2.2039896 0 0 0 0.28125,0.0937 l 0,1.84375 c -4e-6,-0.68595 -0.177892,-1.29668 -0.28125,-1.9375 z m 65.1875,0 c 0.57711,10e-6 0.6079,-0.006 0.90625,0.40625 a 2.2039896,2.2039896 0 0 0 0,0.0312 c 0.291,0.39841 0.56249,1.17001 0.5625,2.4375 -1e-5,1.25208 -0.25099,1.96742 -0.5625,2.40625 -0.30068,0.41164 -0.33921,0.4375 -0.90625,0.4375 -0.56705,0 -0.60559,-0.0259 -0.90625,-0.4375 -0.29594,-0.42259 -0.53126,-1.13283 -0.53125,-2.40625 -1e-5,-1.28918 0.25603,-2.08742 0.53125,-2.46875 0.29833,-0.41198 0.32913,-0.40624 0.90625,-0.40625 z m 21.875,0 c 0.63159,10e-6 0.69066,0.0439 0.9375,0.375 a 2.2039896,2.2039896 0 0 0 0.0312,0 c 0.26297,0.34853 0.49999,1.05117 0.5,2.3125 -1e-5,1.252 -0.24093,1.96915 -0.5,2.3125 a 2.2039896,2.2039896 0 0 0 -0.0312,0 c -0.26213,0.35164 -0.34535,0.40625 -0.9375,0.40625 -0.56422,0 -0.63344,-0.0466 -0.90625,-0.40625 -0.26324,-0.35313 -0.53125,-1.06788 -0.53125,-2.3125 0,-1.25398 0.26415,-1.95419 0.53125,-2.3125 0.25688,-0.3396 0.30386,-0.37499 0.90625,-0.375 z m 15.25,0 c 0.63161,10e-6 0.69064,0.0439 0.9375,0.375 a 2.2039896,2.2039896 0 0 0 0.0312,0 c 0.26298,0.34854 0.49999,1.05118 0.5,2.3125 -1e-5,1.252 -0.24092,1.96914 -0.5,2.3125 a 2.2039896,2.2039896 0 0 0 -0.0312,0 c -0.26216,0.35167 -0.34533,0.40625 -0.9375,0.40625 -0.56457,0 -0.68041,-0.0695 -0.9375,-0.40625 -0.24273,-0.3256 -0.50001,-1.03837 -0.5,-2.3125 -1e-5,-1.28334 0.25342,-1.98172 0.5,-2.3125 0.24129,-0.31676 0.3347,-0.37499 0.9375,-0.375 z m 37.125,0 c 0.63161,10e-6 0.69064,0.0439 0.9375,0.375 a 2.2039896,2.2039896 0 0 0 0.0312,0 c 0.26298,0.34854 0.49999,1.05118 0.5,2.3125 -1e-5,1.252 -0.24092,1.96914 -0.5,2.3125 a 2.2039896,2.2039896 0 0 0 -0.0312,0 c -0.26216,0.35167 -0.34533,0.40625 -0.9375,0.40625 -0.56457,0 -0.68041,-0.0695 -0.9375,-0.40625 -0.24273,-0.3256 -0.50001,-1.03837 -0.5,-2.3125 -1e-5,-1.28334 0.25342,-1.98172 0.5,-2.3125 0.24129,-0.31676 0.3347,-0.37499 0.9375,-0.375 z m -106.3125,0.0312 c 0.55873,0 0.61146,0.0252 0.9375,0.46875 0.30976,0.41783 0.56249,1.1304 0.5625,2.375 -1e-5,1.25397 -0.24914,1.95232 -0.5625,2.375 -0.32865,0.44329 -0.38874,0.46875 -0.9375,0.46875 -0.58659,0 -0.7277,-0.0785 -1,-0.4375 -0.28653,-0.39102 -0.53126,-1.121 -0.53125,-2.40625 -1e-5,-1.2633 0.24038,-2.0173 0.53125,-2.40625 a 2.2039896,2.2039896 0 0 0 0.0312,0 c 0.29959,-0.4041 0.36839,-0.4375 0.96875,-0.4375 z m 153.5625,0.0937 0,4.125 c 0,0.44426 0.11173,0.82668 0.15625,1.25 a 2.2039896,2.2039896 0 0 0 -0.5625,-0.0937 l -2.1875,0 c -0.0197,-0.11893 -0.0312,-0.15315 -0.0312,-0.3125 l 0,-4.90625 2.21875,0 A 2.2039896,2.2039896 0 0 0 262.03125,690.5 z M 61.5,690.53125 a 2.2039896,2.2039896 0 0 0 0.71875,0.65625 c -0.208393,0.18582 -0.323467,0.44236 -0.5,0.65625 -0.03437,-0.45188 -0.129941,-0.88176 -0.21875,-1.3125 z m 7,4.9375 c -0.02567,0.0335 -0.004,0.12426 -0.03125,0.15625 -0.336883,0.39547 -0.460277,0.46875 -1.15625,0.46875 -0.484893,0 -0.563819,-0.0666 -0.59375,-0.0937 -0.02724,-0.001 -10e-7,0.082 0,-0.15625 -10e-7,-0.45925 -0.058,-0.17745 -0.09375,-0.15625 -0.04172,0.0247 0.935943,-0.13076 1.875,-0.21875 z m 169.5625,0 c -0.0257,0.0335 -0.004,0.12426 -0.0312,0.15625 -0.31642,0.37145 -0.49152,0.46875 -1.1875,0.46875 -0.48489,0 -0.56382,-0.0666 -0.59375,-0.0937 -0.0273,-0.001 0,0.082 0,-0.15625 0,-0.45926 -0.058,-0.17745 -0.0937,-0.15625 -0.0424,0.0252 0.93848,-0.13224 1.90625,-0.21875 z m 84.65625,0.0312 0,0.34375 a 2.2039896,2.2039896 0 0 0 -0.15625,-0.21875 2.2039896,2.2039896 0 0 0 0.15625,-0.125 z m -268.78125,0.46875 1.5,0 c -0.352887,0.0534 -0.69713,0.125 -1.0625,0.125 -0.249648,0 -0.249881,-0.10132 -0.4375,-0.125 z m 261.8125,0 1.5,0 c -0.35289,0.0534 -0.69713,0.125 -1.0625,0.125 -0.24965,0 -0.24988,-0.10132 -0.4375,-0.125 z" />
    <flowRoot
       xml:space="preserve"
       id="flowRoot3019"
       style="font-size:24px;font-style:normal;font-variant:normal;font-weight:normal;font-stretch:normal;line-height:125%;letter-spacing:0px;word-spacing:0px;fill:#000000;fill-opacity:1;stroke:none;font-family:DejaVu Sans;-inkscape-font-specification:DejaVu Sans"
       transform="translate(-7.7673831,38.836915)"><flowRegion
         id="flowRegion3021"><rect
           id="rect3023"
           width="383.19089"
           height="104.85968"
           x="25.891277"
           y="607.03223" /></flowRegion><flowPara
         id="flowPara3025" /><flowPara
         id="flowPara3027">Great for digging a tunnel!</flowPara></flowRoot>    <image
       y="468.06476"
       x="546.68127"
       id="image3001"
       xlink:href="file:///home/jeff/minecraft/Power%20Tools/media/ads/wideBoreDrillHeld.png"
       height="258"
       width="240" />
    <flowRoot
       xml:space="preserve"
       id="flowRoot3018"
       style="font-size:24px;font-style:normal;font-variant:normal;font-weight:normal;font-stretch:normal;line-height:125%;letter-spacing:0px;word-spacing:0px;fill:#000000;fill-opacity:1;stroke:none;font-family:DejaVu Sans;-inkscape-font-specification:DejaVu Sans"
       transform="translate(4.6690061,281.48502)"><flowRegion
         id="flowRegion3020"><rect
           id="rect3022"
           width="191.28717"
           height="65.23156"
           x="12.341107"
           y="319.10577" /></flowRegion><flowPara
         id="flowPara3024">Digs a 3x3x1 chunk of blocks</flowPara></flowRoot>  </g>
</svg>
